<svg height="511pt" viewBox="0 0 511 511.99976" width="511pt" xmlns="http://www.w3.org/2000/svg"><path d="m423.960938 296.515625c0 114.863281-93.113282 207.976563-207.976563 207.976563s-207.976563-93.113282-207.976563-207.976563 93.113282-207.976563 207.976563-207.976563 207.976563 93.113282 207.976563 207.976563zm0 0" fill="#0396fd"/><path d="m423.960938 296.519531c0 114.863281-93.109376 207.972657-207.972657 207.972657-33.617187 0-65.382812-7.972657-93.480469-22.144532 20.191407 6.542969 41.738282 10.074219 64.109376 10.074219 114.863281 0 207.972656-93.109375 207.972656-207.972656 0-81.265625-46.609375-151.652344-114.5625-185.859375 83.527344 26.992187 143.933594 105.40625 143.933594 197.929687zm0 0" fill="#0077f0"/><path d="m366.285156 296.515625c0 83.007813-67.289062 150.300781-150.300781 150.300781-83.007813 0-150.300781-67.292968-150.300781-150.300781 0-83.011719 67.292968-150.304687 150.300781-150.304687 83.011719 0 150.300781 67.292968 150.300781 150.304687zm0 0" fill="#e7e7e7"/><path d="m366.285156 296.519531c0 83.003907-67.292968 150.296875-150.296875 150.296875-29.722656 0-57.429687-8.625-80.75-23.511718 16.328125 6.082031 34.003907 9.402343 52.445313 9.402343 83.015625 0 150.308594-67.292969 150.308594-150.296875 0-53.289062-27.742188-100.113281-69.558594-126.796875 57.144531 21.285157 97.851562 76.347657 97.851562 140.90625zm0 0" fill="#cecece"/><path d="m308.324219 296.515625c0 50.996094-41.34375 92.335937-92.339844 92.335937s-92.335937-41.339843-92.335937-92.335937 41.339843-92.339844 92.335937-92.339844 92.339844 41.34375 92.339844 92.339844zm0 0" fill="#64dcfc"/><path d="m308.320312 296.519531c0 50.996094-41.335937 92.332031-92.332031 92.332031-25.53125 0-48.636719-10.351562-65.351562-27.097656 8.976562 2.914063 18.5625 4.492188 28.507812 4.492188 50.996094 0 92.34375-41.347656 92.34375-92.34375 0-25.472656-10.3125-48.539063-27.003906-65.242188 37.046875 12.007813 63.835937 46.800782 63.835937 87.859375zm0 0" fill="#00d1fc"/><path d="m260.800781 296.515625c0 24.75-20.066406 44.8125-44.816406 44.8125s-44.8125-20.0625-44.8125-44.8125 20.0625-44.816406 44.8125-44.816406 44.816406 20.066406 44.816406 44.816406zm0 0" fill="#838383"/><path d="m260.792969 296.519531c0 24.738281-20.054688 44.804688-44.804688 44.804688-13.960937 0-26.425781-6.382813-34.632812-16.382813 4.429687 1.484375 9.167969 2.273438 14.097656 2.273438 24.75 0 44.816406-20.054688 44.816406-44.804688 0-10.800781-3.820312-20.695312-10.183593-28.433594 17.835937 5.902344 30.707031 22.714844 30.707031 42.542969zm0 0" fill="#5a5a5a"/><path d="m357.675781 125.4375-9.273437-57.710938c-.28125-1.753906.292968-3.539062 1.550781-4.796874l53.792969-53.789063c3.25-3.25 8.816406-1.359375 9.410156 3.199219l6.648438 50.972656zm0 0" fill="#ff6b81"/><path d="m386.941406 156.078125 57.710938 9.273437c1.753906.28125 3.539062-.292968 4.796875-1.554687l53.789062-53.789063c3.25-3.25 1.355469-8.816406-3.203125-9.410156l-50.96875-6.648437zm0 0" fill="#ff6b81"/><path d="m503.238281 110.007812-53.792969 53.789063c-1.253906 1.257813-3.039062 1.835937-4.796874 1.554687l-15.378907-2.476562 63.257813-63.257812 7.507812.980468c4.558594.59375 6.453125 6.160156 3.203125 9.410156zm0 0" fill="#ff435f"/><path d="m207.335938 306.25c-8.195313-8.195312-8.203126-21.484375-.019532-29.691406l216-216.714844c8.199219-8.226562 21.519532-8.234375 29.734375-.023438 8.195313 8.199219 8.207031 21.484376.023438 29.691407l-216 216.714843c-8.203125 8.226563-21.523438 8.234376-29.738281.023438zm0 0" fill="#e7e7e7"/><path d="m459.207031 74.675781c0 5.367188-2.050781 10.738281-6.136719 14.835938l-215.996093 216.722656c-8.207031 8.214844-21.519531 8.226563-29.738281.019531-1.609376-1.613281-2.902344-3.414062-3.882813-5.347656 6.648437 1.3125 13.8125-.617188 18.964844-5.773438l215.996093-216.722656c4.089844-4.097656 6.136719-9.464844 6.136719-14.835937 0-3.265625-.757812-6.539063-2.28125-9.519531 3.949219.78125 7.726563 2.710937 10.777344 5.765624 4.097656 4.097657 6.160156 9.476563 6.160156 14.855469zm0 0" fill="#cecece"/><path d="m511.671875 101.890625c-1.613281-4.742187-5.699219-8.089844-10.664063-8.734375l-37.730468-4.921875c5.828125-10.804687 4.191406-24.609375-4.917969-33.71875-5.386719-5.390625-12.546875-8.355469-20.164063-8.355469-.007812 0-.015624 0-.019531 0-4.464843.003906-8.765625 1.03125-12.652343 2.960938l-4.921876-37.75c-.648437-4.96875-3.996093-9.054688-8.734374-10.667969-4.742188-1.609375-9.886719-.414063-13.429688 3.128906l-53.789062 53.789063c-2.953126 2.953125-4.320313 7.175781-3.65625 11.296875l8.703124 54.15625-2.488281 2.496093c-37.464843-28.882812-83.136719-44.539062-131.222656-44.539062-45.191406 0-88.453125 13.835938-125.105469 40.015625-3.375 2.410156-4.15625 7.097656-1.746094 10.472656 2.410157 3.375 7.097657 4.15625 10.472657 1.746094 34.089843-24.351563 74.335937-37.222656 116.378906-37.222656 45.171875 0 86.894531 15.027343 120.449219 40.332031l-30.472656 30.574219c-25.539063-17.792969-56.558594-28.246094-89.976563-28.246094-87.015625 0-157.808594 70.792969-157.808594 157.8125 0 87.015625 70.792969 157.808594 157.808594 157.808594s157.808594-70.792969 157.808594-157.808594c0-33.039063-10.214844-63.726563-27.636719-89.097656l30.515625-30.621094c24.972656 33.433594 39.78125 74.875 39.78125 119.71875 0 110.539063-89.929687 200.46875-200.46875 200.46875s-200.46875-89.929687-200.46875-200.46875c0-49.433594 18.144531-96.914063 51.09375-133.699219 2.765625-3.085937 2.503906-7.835937-.582031-10.601562-3.089844-2.765625-7.835938-2.503906-10.601563.582031-35.421875 39.542969-54.925781 90.582031-54.925781 143.71875 0 57.558594 22.414062 111.671875 63.113281 152.371094s94.8125 63.113281 152.371094 63.113281 111.671875-22.414062 152.371094-63.113281 63.113281-94.8125 63.113281-152.371094c0-47.792969-15.472656-93.199219-44.015625-130.53125l1.90625-1.914063 54.097656 8.695313c.6875.109375 1.375.164063 2.0625.164063 3.429688 0 6.777344-1.359376 9.238281-3.820313l11.546876-11.546875c2.933593-2.933594 2.933593-7.683594 0-10.617188-2.933594-2.929687-7.683594-2.929687-10.617188 0l-10.835938 10.835938-42.210937-6.785156 49.121094-49.121094 43.34375 5.652344-6.511719 6.511718c-2.929688 2.933594-2.929688 7.683594 0 10.617188 2.933594 2.929688 7.6875 2.929688 10.617188 0l9.335937-9.335938c3.539063-3.542968 4.738281-8.6875 3.125-13.429687zm-105.445313-84.617187 5.65625 43.34375-49.125 49.121093-6.785156-42.210937zm-47.449218 279.242187c0 78.734375-64.054688 142.792969-142.792969 142.792969s-142.792969-64.058594-142.792969-142.792969c0-78.738281 64.054688-142.792969 142.792969-142.792969 29.28125 0 56.523437 8.859375 79.203125 24.035156l-31.164062 31.269532c-14.261719-7.867188-30.632813-12.359375-48.039063-12.359375-55.054687 0-99.84375 44.792969-99.84375 99.847656 0 55.050781 44.789063 99.84375 99.84375 99.84375s99.84375-44.792969 99.84375-99.84375c0-16.945313-4.257813-32.90625-11.734375-46.898437l31.269531-31.375c14.796875 22.496093 23.414063 49.394531 23.414063 78.273437zm-156.75 15.042969c5.386718 5.386718 12.550781 8.351562 20.167968 8.351562h.019532c7.625-.003906 14.789062-2.980468 20.175781-8.382812l10.640625-10.675782c-2.15625 18.535157-17.945312 32.96875-37.046875 32.96875-20.570313 0-37.304687-16.734374-37.304687-37.304687 0-19.890625 15.640624-36.191406 35.269531-37.25l-11.949219 11.988281c-11.085938 11.121094-11.074219 29.199219.027344 40.304688zm-38.363282-15.042969c0 28.847656 23.472657 52.320313 52.320313 52.320313s52.320313-23.46875 52.320313-52.320313c0-3.425781-.34375-6.765625-.976563-10.007813l25.59375-25.679687c5.058594 10.855469 7.894531 22.945313 7.894531 35.6875 0 46.773437-38.054687 84.828125-84.832031 84.828125s-84.828125-38.054688-84.828125-84.828125c0-46.777344 38.050781-84.832031 84.828125-84.832031 13.234375 0 25.761719 3.058594 36.933594 8.488281l-25.269531 25.351563c-3.75-.863282-7.652344-1.328126-11.664063-1.328126-28.847656 0-52.320313 23.46875-52.320313 52.320313zm68.09375 4.410156c-2.550781 2.558594-5.945312 3.96875-9.554687 3.96875-.003906 0-.007813 0-.007813 0-3.609374 0-7-1.402343-9.550781-3.953125-5.253906-5.257812-5.261719-13.816406-.011719-19.082031l216-216.714844c2.550782-2.558593 5.941407-3.96875 9.550782-3.972656h.011718c3.605469 0 6.996094 1.40625 9.546876 3.957031 5.257812 5.257813 5.265624 13.816406.011718 19.082032zm0 0"/></svg>