<?xml version="1.0" encoding="utf-8"?>
<!-- Generator: Adobe Illustrator 22.0.0, SVG Export Plug-In . SVG Version: 6.00 Build 0)  -->
<svg version="1.1" id="Capa_1" xmlns="http://www.w3.org/2000/svg" xmlns:xlink="http://www.w3.org/1999/xlink" x="0px" y="0px"
	 viewBox="0 0 512 512" style="enable-background:new 0 0 512 512;" xml:space="preserve">
<style type="text/css">
	.st0{fill:#BAF0FF;}
	.st1{fill:#8ADEFF;}
	.st2{fill:#2FB6EB;}
	.st3{fill:#0097C6;}
	.st4{fill:#00A1D3;}
	.st5{fill:#FF6243;}
	.st6{fill:#D80027;}
	.st7{fill:#FFFFFF;}
</style>
<polygon class="st0" points="152.1,151.3 232.2,47.1 280.3,47.1 360.5,151.3 "/>
<g>
	<polygon class="st1" points="232.2,47.1 152.1,151.3 173.1,151.3 253.3,47.1 	"/>
	<polygon class="st1" points="219.9,63.1 232.2,47.1 280.3,47.1 292.6,63.1 	"/>
	<polygon class="st1" points="360.5,151.3 152.1,151.3 164.4,135.3 348.1,135.3 	"/>
	<path class="st1" d="M360.5,223.4v-72.1H152.1v72.1c0,17.7,14.4,32.1,32.1,32.1h-4c-15.5,0-28.1,12.6-28.1,28.1l0,0
		c0,15.5,12.6,28.1,28.1,28.1c-15.5,0-28.1,12.6-28.1,28.1l0,0c0,15.5,12.6,28.1,28.1,28.1h4c-17.7,0-32.1,14.4-32.1,32.1v64.1
		c0,17.7,14.4,32.1,32.1,32.1h42.9c5.7,5,13.1,8,21.2,8h16c8.1,0,15.5-3,21.2-8h42.9c17.7,0,32.1-14.4,32.1-32.1v-64.1
		c0-17.7-14.4-32.1-32.1-32.1h4c15.5,0,28.1-12.6,28.1-28.1l0,0c0-15.5-12.6-28.1-28.1-28.1c15.5,0,28.1-12.6,28.1-28.1l0,0
		c0-15.5-12.6-28.1-28.1-28.1h-4C346.1,255.5,360.5,241.1,360.5,223.4z"/>
</g>
<g>
	<path class="st2" d="M172.1,463.9v-64.1c0-17.7,14.4-32.1,32.1-32.1h-4c-15.5,0-28.1-12.6-28.1-28.1s12.6-28.1,28.1-28.1
		c-15.5,0-28.1-12.6-28.1-28.1s12.6-28.1,28.1-28.1h4c-17.7,0-32.1-14.4-32.1-32.1v-72.1h-20v72.1c0,17.7,14.4,32.1,32.1,32.1h-4
		c-15.5,0-28.1,12.6-28.1,28.1c0,15.5,12.6,28.1,28.1,28.1c-15.5,0-28.1,12.6-28.1,28.1s12.6,28.1,28.1,28.1h4
		c-17.7,0-32.1,14.4-32.1,32.1v64.1c0,17.7,14.4,32.1,32.1,32.1h20C186.5,496,172.1,481.6,172.1,463.9z"/>
	<path class="st2" d="M247.1,496h-20c5.7,5,13.1,8,21.2,8h16c0.7,0,1.3,0,2-0.1C258.9,503.5,252.3,500.5,247.1,496z"/>
	<path class="st2" d="M328.4,367.7H184.1c-17.7,0-32.1,14.4-32.1,32.1v64.1c0,17.7,14.4,32.1,32.1,32.1h42.9c5.7,5,13.1,8,21.2,8h16
		c8.1,0,15.5-3,21.2-8h42.9c17.7,0,32.1-14.4,32.1-32.1v-64.1C360.5,382.1,346.1,367.7,328.4,367.7z"/>
	<path class="st2" d="M332.4,311.6H180.1c-15.5,0-28.1-12.6-28.1-28.1l0,0c0-15.5,12.6-28.1,28.1-28.1h152.3
		c15.5,0,28.1,12.6,28.1,28.1l0,0C360.5,299,347.9,311.6,332.4,311.6z"/>
</g>
<path class="st3" d="M172.1,463.9v-64.1c0-17.7,14.4-32.1,32.1-32.1h-20c-17.7,0-32.1,14.4-32.1,32.1v64.1
	c0,17.7,14.4,32.1,32.1,32.1h20C186.5,496,172.1,481.6,172.1,463.9z"/>
<path class="st4" d="M247.1,496h-20c5.7,5,13.1,8,21.2,8h16c0.7,0,1.3,0,2-0.1C258.9,503.5,252.3,500.5,247.1,496z"/>
<path class="st3" d="M172.1,283.6c0-15.5,12.6-28.1,28.1-28.1h-20c-15.5,0-28.1,12.6-28.1,28.1s12.6,28.1,28.1,28.1h20
	C184.7,311.6,172.1,299,172.1,283.6z"/>
<rect x="208.2" y="7" class="st5" width="96.2" height="40.1"/>
<g>
	<rect x="208.2" y="7" class="st6" width="16" height="40.1"/>
	<rect x="208.2" y="31.1" class="st6" width="96.2" height="16"/>
</g>
<path d="M367.9,339.7c0-10.2-4.3-19.4-11.2-25.9c-1.2-1.2-1.2-3.1,0-4.3c6.9-6.5,11.3-15.7,11.3-25.9c0-10.7-5-20.4-12.6-26.9
	c0-1.8-0.1-2.7-0.1-4.4c7.6-7.2,12.2-17.4,12.2-28.8v-73.7c0-0.7-0.2-1.3-0.6-1.8l-67.6-88c-1.5-2-0.1-4.8,2.4-4.8h6.7
	c1.7,0,3-1.3,3-3V3c0-1.7-1.3-3-3-3H203.2c-1.7,0-3,1.3-3,3v49.1c0,1.7,1.3,3,3,3h7.7c2.5,0,3.9,2.9,2.4,4.8l-68.5,88
	c-0.4,0.5-0.6,1.2-0.6,1.8v73.7c0,11.3,5,21.6,12.7,28.8c1.3,1.2,1.2,3.3-0.1,4.4c-7.5,6.5-12.2,16.2-12.2,26.9
	c0,10.2,4.4,19.4,11.3,25.9c1.2,1.2,1.2,3.1,0,4.3c-6.9,6.5-11.2,15.7-11.2,25.9c0,10.7,4.6,20.4,12.1,26.9c1.3,1.2,1.4,3.2,0.1,4.4
	c-7.7,7.2-12.7,17.4-12.7,28.8v64.1c0,22,18,40.1,40.1,40.1h40.1v-0.7c6.7,5.1,15,8.7,24,8.7h16c9,0,17.4-3.6,24-8.7v0.7h40.1
	c21.6,0,39.1-17.5,39.1-39.1v-65.1c0-11.3-4.6-21.6-12.2-28.8c0-1.8,0.1-2.7,0.1-4.4C363,360,367.9,350.4,367.9,339.7z M215.2,37.1
	V18c0-1.7,1.3-3,3-3h75.2c1.7,0,3,1.3,3,3v19c0,1.7-1.3,3-3,3h-75.2C216.5,40.1,215.2,38.7,215.2,37.1z M235.9,55.1h40.7l68.6,89.2
	H167.3 M332.4,319.6c12,0,21.6,10.3,20.5,22.5c-1,10.6-10.2,18.6-20.9,18.6h-16.6c-1.7,0-3,1.3-3,3v9c0,1.7,1.3,3,3,3h13
	c13.3,0,24,10.8,24,24v64.1c0,13.8-11.3,25-25,25h-27.2c1.9-4.9,3.1-9.2,3.5-13.7c0.2-1.8-1.2-3.3-3-3.3h-9.1c-1.1,1-1.8,1.6-3,2.6
	c-1.3,12.4-11.8,22.4-24.4,22.4h-16c-12.7,0-23.1-10.1-24.4-22.4c-1.1-1-1.8-1.6-3-2.6h-9.1c-1.8,0-3.1,1.5-3,3.3
	c0.4,4.6,1.6,8.9,3.5,13.7c0,0-14.4,0-28.2,0c-13.8,0-25-11.3-25-25v-64.1c0-13.3,10.8-24,24-24h78.2c1.7,0,3-1.3,3-3v-9
	c0-1.7-1.3-3-3-3h-80.7c-10.7,0-20-8-20.9-18.6c-1.1-12.2,8.5-22.5,20.5-22.5h81.2c1.7,0,3-1.3,3-3v-9c0-1.7-1.3-3-3-3h-80.7
	c-10.7,0-20-8-20.9-18.6c-1.1-12.2,8.5-22.5,20.5-22.5h81.2c1.7,0,3-1.3,3-3v-9c0-1.7-1.3-3-3-3h-77.2c-13.8,0-25-11.3-25-25v-64.1
	h193.4v64.1c0,13.8-11.3,25-25,25h-12c-1.7,0-3,1.3-3,3v9c0,1.7,1.3,3,3,3h16.6c10.7,0,20,8,20.9,18.6c1.1,12.2-8.5,22.5-20.5,22.5
	h-17c-1.7,0-3,1.3-3,3v9c0,1.7,1.3,3,3,3H332.4z"/>
<g>
	<path class="st7" d="M203.2,111.7h10c1.7,0,3,1.3,3,3v9c0,1.7-1.3,3-3,3h-10c-1.7,0-3-1.3-3-3v-9
		C200.2,113.1,201.5,111.7,203.2,111.7z"/>
	<path class="st7" d="M219.2,95.7h10c1.7,0,3,1.3,3,3v9c0,1.7-1.3,3-3,3h-10c-1.7,0-3-1.3-3-3v-9C216.2,97,217.5,95.7,219.2,95.7z"
		/>
	<path class="st7" d="M283.3,304.1h10c1.7,0,3,1.3,3,3v9c0,1.7-1.3,3-3,3h-10c-1.7,0-3-1.3-3-3v-9
		C280.3,305.4,281.7,304.1,283.3,304.1z"/>
	<path class="st7" d="M283.3,248h10c1.7,0,3,1.3,3,3v9c0,1.7-1.3,3-3,3h-10c-1.7,0-3-1.3-3-3v-9C280.3,249.3,281.7,248,283.3,248z"
		/>
	<path class="st7" d="M283.3,360.2h10c1.7,0,3,1.3,3,3v9c0,1.7-1.3,3-3,3h-10c-1.7,0-3-1.3-3-3v-9
		C280.3,361.5,281.7,360.2,283.3,360.2z"/>
</g>
<path d="M436.5,88.2h-14.6V73.6c0-4.1-3.4-7.5-7.5-7.5s-7.5,3.4-7.5,7.5v14.6h-14.6c-4.1,0-7.5,3.4-7.5,7.5s3.4,7.5,7.5,7.5h14.6
	v14.6c0,4.1,3.4,7.5,7.5,7.5s7.5-3.4,7.5-7.5v-14.6h14.6c4.1,0,7.5-3.4,7.5-7.5S440.6,88.2,436.5,88.2z"/>
<path d="M119.7,392.7h-14.6v-14.6c0-4.1-3.4-7.5-7.5-7.5s-7.5,3.4-7.5,7.5v14.6H75.5c-4.1,0-7.5,3.4-7.5,7.5s3.4,7.5,7.5,7.5h14.6
	v14.6c0,4.1,3.4,7.5,7.5,7.5s7.5-3.4,7.5-7.5v-14.6h14.6c4.1,0,7.5-3.4,7.5-7.5S123.8,392.7,119.7,392.7z"/>
</svg>
