<?xml version="1.0" encoding="iso-8859-1"?>
<!-- Uploaded to: SVG Repo, www.svgrepo.com, Generator: SVG Repo Mixer Tools -->
<svg version="1.1" id="Layer_1" xmlns="http://www.w3.org/2000/svg" xmlns:xlink="http://www.w3.org/1999/xlink" 
	 viewBox="0 0 512 512" xml:space="preserve">
<path style="fill:#F4DA49;" d="M386.451,285.494l-55.871-28.163H181.419l-55.871,28.163C99.92,298.413,84,324.267,84,352.967V512
	h343.999V352.967C428,324.266,412.08,298.411,386.451,285.494z"/>
<path style="fill:#E69824;" d="M386.451,285.494l-55.871-28.163h-74.024V512H428V352.967
	C428,324.266,412.08,298.411,386.451,285.494z"/>
<path style="fill:#F3D49D;" d="M256.001,326.834c-28.119,0-54.274-13.36-75.638-38.635c-16.755-19.823-29.587-45.814-37.108-75.162
	c-7.482-29.196-9.012-58.983-4.425-86.142l233.661-3.769c10.612,55.242-5.764,122.615-39.82,163.837
	C311.121,313.048,284.608,326.834,256.001,326.834z"/>
<path style="fill:#EEBF70;" d="M256.001,326.834c0-33.296,0-199.938,0-199.938l116.49-3.769
	c10.612,55.242-5.764,122.615-39.82,163.837C311.121,313.048,284.608,326.834,256.001,326.834z"/>
<path style="fill:#282828;" d="M302.742,198.898c-2.893,0-5.239-2.346-5.239-5.239c0-2.09,1.227-3.889,2.997-4.729
	c-2.548-2.006-5.761-3.206-9.257-3.206c-8.275,0-14.983,6.708-14.983,14.983c0,8.275,6.708,14.983,14.983,14.983
	s14.983-6.708,14.983-14.983c0-0.995-0.099-1.966-0.285-2.906C305.058,198.485,303.95,198.898,302.742,198.898z"/>
<path style="fill:#444444;" d="M232.253,198.898c-2.893,0-5.239-2.346-5.239-5.239c0-2.09,1.227-3.889,2.997-4.729
	c-2.548-2.006-5.761-3.206-9.257-3.206c-8.275,0-14.983,6.708-14.983,14.983c0,8.275,6.708,14.983,14.983,14.983
	c8.275,0,14.983-6.708,14.983-14.983c0-0.995-0.099-1.966-0.285-2.906C234.568,198.485,233.461,198.898,232.253,198.898z"/>
<path style="fill:#DD5323;" d="M256.001,274.702c15.788,18.924,58.209,4.218,50.138-19.326
	c-19.581,8.781-29.484-20.806-50.138,1.944c-20.654-22.75-30.557,6.836-50.138-1.944
	C197.792,278.92,240.212,293.626,256.001,274.702z"/>
<path style="fill:#BF0F36;" d="M256.001,274.702c15.788,18.924,58.209,4.218,50.138-19.326
	c-19.581,8.781-29.484-20.806-50.138,1.944L256.001,274.702L256.001,274.702z"/>
<path style="fill:#3D6DFA;" d="M195.078,164.401c-15.689,0-31.006-5.885-43.005-16.92l-14.282-13.137V93.242
	c0-32.672,16.589-58.853,47.973-75.713C209.819,4.604,237.819,0,256.001,0s46.182,4.604,70.237,17.528
	c31.384,16.86,47.973,43.041,47.973,75.713v41.102l-14.283,13.137c-16.164,14.866-38.352,20.385-59.355,14.762
	c-13.829-3.703-28.825-5.58-44.572-5.58s-30.744,1.878-44.572,5.58C206.017,163.691,200.525,164.401,195.078,164.401z"/>
<path style="fill:#2B3D7B;" d="M256.001,0c18.182,0,46.182,4.604,70.237,17.528c31.384,16.86,47.973,43.041,47.973,75.713v41.102
	l-14.283,13.137c-16.164,14.866-38.352,20.385-59.355,14.762c-13.829-3.703-28.825-5.58-44.572-5.58
	C256.001,132.772,256.001,9.483,256.001,0z"/>
<path style="fill:#3D6DFA;" d="M386.451,285.494l-25.699-12.954l-32.313,100.536H183.563L151.249,272.54l-25.699,12.955
	c-1.5,0.756-2.964,1.561-4.396,2.404l33.576,104.468V512h202.542V392.365l33.576-104.468
	C389.415,287.055,387.951,286.25,386.451,285.494z"/>
<path style="fill:#2B3D7B;" d="M386.451,285.494l-25.699-12.954l-32.313,100.536h-71.882V512h100.716V392.365l33.576-104.468
	C389.415,287.055,387.951,286.25,386.451,285.494z"/>
<rect x="188.089" y="406.427" style="fill:#67B5F8;" width="135.835" height="66.66"/>
<rect x="256.551" y="406.427" style="fill:#3D6DFA;" width="67.362" height="66.66"/>
<path style="fill:#67B5F8;" d="M256.001,101.145c-62.107,0-100.975,21.068-118.209,33.199l14.282,13.137
	c11.999,11.036,27.316,16.921,43.005,16.92c5.447,0,10.939-0.709,16.351-2.158c13.828-3.703,28.824-5.58,44.572-5.58
	c15.747,0,30.742,1.878,44.572,5.58c21.002,5.623,43.192,0.104,59.355-14.762l14.282-13.137
	C356.975,122.213,318.108,101.145,256.001,101.145z"/>
<path style="fill:#3D6DFA;" d="M256.001,101.145c0,10.065,0,38.971,0,55.518c15.747,0,30.742,1.878,44.572,5.58
	c21.002,5.623,43.192,0.104,59.355-14.762l14.282-13.137C356.975,122.213,318.108,101.145,256.001,101.145z"/>
</svg>