<?xml version="1.0" encoding="utf-8"?>
<!-- Generator: Adobe Illustrator 23.0.0, SVG Export Plug-In . SVG Version: 6.00 Build 0)  -->
<svg version="1.1" id="Layer_1" xmlns="http://www.w3.org/2000/svg" xmlns:xlink="http://www.w3.org/1999/xlink" x="0px" y="0px"
	 viewBox="0 0 240.5 240.5" style="enable-background:new 0 0 240.5 240.5;" xml:space="preserve">
<style type="text/css">
	.st0{fill:#76BCE8;}
	.st1{fill:#3B8ACA;}
	.st2{fill:#FFFFFF;}
	.st3{fill:none;}
</style>
<circle class="st0" cx="120.2" cy="120.2" r="120.2"/>
<circle class="st1" cx="120.2" cy="120.2" r="105.8"/>
<g>
	<path class="st2" d="M120.8,53.6c0,13.6-6.4,21.2-17.8,21.2c-11.5,0-17.9-7.6-17.9-21.2c0-13.6,6.4-21.2,17.9-21.2
		C114.4,32.4,120.8,40,120.8,53.6z M92.4,53.6c0,10.6,3.5,15.6,10.6,15.6c7,0,10.6-5,10.6-15.6C113.5,42.9,110,38,103,38
		C95.9,38,92.4,42.9,92.4,53.6z"/>
	<path class="st2" d="M134.9,39V48l5.8-0.1c9.1,0,15,5.4,15,12.8c0,8.5-6.1,14.1-15.5,14.1c-5,0-10.8-1.9-14.9-4.8l2.8-5.8
		c3.4,2.8,7.6,4.4,11.3,4.4c5.5,0,8.8-2.8,8.8-7.6c0-4.3-3.3-6.9-8.7-6.9c-2.5,0-8.2,0.2-11,0.5V32.6h25.5L154,39H134.9z"/>
</g>
<g>
	<path class="st2" d="M48.8,109.5l2.9-9.6h2.9l-4.5,12.8h-2.8L43,99.9h2.9L48.8,109.5z"/>
	<path class="st2" d="M55.9,114.8c0-0.2,0-0.3,0.1-0.5s0.2-0.3,0.3-0.4s0.3-0.2,0.4-0.3s0.4-0.1,0.6-0.1s0.4,0,0.6,0.1
		s0.3,0.1,0.4,0.3s0.2,0.2,0.3,0.4s0.1,0.3,0.1,0.5c0,0.2,0,0.3-0.1,0.5s-0.2,0.3-0.3,0.4s-0.3,0.2-0.4,0.3s-0.4,0.1-0.6,0.1
		s-0.4,0-0.6-0.1s-0.3-0.1-0.4-0.3s-0.2-0.2-0.3-0.4S55.9,114.9,55.9,114.8z M58.6,112.7H56V99.9h2.6V112.7z"/>
	<path class="st2" d="M76,112.7h-2.6l-5.1-8.4v8.4h-2.6V99.9h2.6l5.1,8.4v-8.4H76V112.7z"/>
	<path class="st2" d="M88.4,111.1c-0.2,0.2-0.4,0.4-0.6,0.6s-0.6,0.4-1,0.6s-0.9,0.3-1.4,0.4s-1.2,0.2-1.9,0.2
		c-0.8,0-1.6-0.1-2.3-0.4s-1.3-0.7-1.8-1.2s-0.9-1.2-1.1-1.9s-0.4-1.6-0.4-2.6V106c0-1,0.1-1.9,0.4-2.6s0.6-1.4,1.1-1.9
		s1-0.9,1.7-1.2s1.4-0.4,2.2-0.4c0.8,0,1.6,0.1,2.2,0.3s1.1,0.5,1.5,0.9s0.7,0.8,1,1.3s0.4,1.1,0.4,1.7h-2.6
		c-0.1-0.3-0.1-0.6-0.2-0.9s-0.3-0.5-0.5-0.7s-0.4-0.3-0.7-0.4s-0.6-0.1-1-0.1c-0.9,0-1.6,0.3-2.1,1s-0.7,1.7-0.7,3v0.8
		c0,1.3,0.3,2.4,0.8,3s1.3,1,2.2,1c0.3,0,0.6,0,0.8-0.1s0.4-0.1,0.6-0.2s0.3-0.1,0.4-0.2s0.2-0.1,0.3-0.2v-2.2h-2.4V106h5V111.1z"/>
	<path class="st2" d="M101,106.6c0,1-0.1,1.9-0.4,2.6s-0.6,1.4-1.1,2s-1.1,1-1.7,1.2s-1.4,0.4-2.2,0.4s-1.5-0.1-2.2-0.4
		s-1.2-0.7-1.7-1.2s-0.9-1.2-1.1-2s-0.4-1.7-0.4-2.6V106c0-1,0.1-1.8,0.4-2.6s0.6-1.4,1.1-2s1.1-1,1.7-1.3s1.4-0.4,2.2-0.4
		s1.5,0.1,2.2,0.4s1.2,0.7,1.7,1.3s0.9,1.2,1.1,2s0.4,1.7,0.4,2.6V106.6z M98.4,106c0-1.3-0.2-2.4-0.7-3.1s-1.2-1-2.1-1
		s-1.6,0.3-2.1,1s-0.7,1.7-0.7,3.1v0.6c0,0.7,0.1,1.3,0.2,1.8s0.3,0.9,0.5,1.3s0.5,0.6,0.9,0.8s0.7,0.3,1.2,0.3c0.9,0,1.6-0.4,2-1.1
		s0.7-1.7,0.7-3.1V106z M94.2,114.8c0-0.2,0-0.3,0.1-0.5s0.2-0.3,0.3-0.4s0.3-0.2,0.4-0.3s0.4-0.1,0.6-0.1s0.4,0,0.6,0.1
		s0.3,0.1,0.4,0.3s0.2,0.2,0.3,0.4s0.1,0.3,0.1,0.5c0,0.2,0,0.3-0.1,0.5s-0.2,0.3-0.3,0.4s-0.3,0.2-0.4,0.3s-0.4,0.1-0.6,0.1
		s-0.4,0-0.6-0.1s-0.3-0.1-0.4-0.3s-0.2-0.2-0.3-0.4S94.2,115,94.2,114.8z"/>
	<path class="st2" d="M111.8,102.1h-3.9v10.7h-2.6v-10.7h-3.9v-2.1h10.4V102.1z"/>
	<path class="st2" d="M126.4,102.1h-3.9v10.7h-2.6v-10.7H116v-2.1h10.4V102.1z"/>
	<path class="st2" d="M137.6,99.9v2c0.4,0,0.7-0.1,0.9-0.3s0.4-0.3,0.5-0.6s0.2-0.5,0.2-0.8s0.1-0.7,0.1-1.1h1.7
		c0,0.6-0.1,1.2-0.2,1.7s-0.3,0.9-0.6,1.3s-0.6,0.6-1.1,0.8s-1,0.3-1.6,0.3v5.1c0,0.7-0.1,1.4-0.4,2s-0.6,1-1,1.4s-1,0.7-1.6,0.9
		s-1.3,0.3-2,0.3c-0.7,0-1.4-0.1-2-0.3s-1.1-0.5-1.6-0.9s-0.8-0.9-1-1.4s-0.4-1.2-0.4-2v-8.4h2.6v8.4c0,0.8,0.2,1.4,0.6,1.8
		s1,0.6,1.7,0.6c0.7,0,1.3-0.2,1.7-0.6s0.6-1,0.6-1.8v-8.4H137.6z M131.6,114.9c0-0.2,0-0.3,0.1-0.5s0.2-0.3,0.3-0.4
		s0.3-0.2,0.4-0.3s0.4-0.1,0.6-0.1s0.4,0,0.6,0.1s0.3,0.1,0.4,0.3s0.2,0.2,0.3,0.4s0.1,0.3,0.1,0.5c0,0.2,0,0.3-0.1,0.5
		s-0.2,0.3-0.3,0.4s-0.3,0.2-0.4,0.3s-0.4,0.1-0.6,0.1s-0.4,0-0.6-0.1s-0.3-0.1-0.4-0.3s-0.2-0.2-0.3-0.4S131.6,115,131.6,114.9z"/>
	<path class="st2" d="M155.6,112.7H153l-5.1-8.4v8.4h-2.6V99.9h2.6l5.1,8.4v-8.4h2.6V112.7z"/>
	<path class="st2" d="M168.3,112.7h-2.6v-5.5h-5.1v5.5h-2.6V99.9h2.6v5.2h5.1v-5.2h2.6V112.7z"/>
	<path class="st2" d="M173.4,112.7h-2.6V99.9h2.6V112.7z"/>
	<path class="st2" d="M183.6,107.2h-5.1v3.4h5.9v2.1h-8.6V99.9h8.6v2.1h-5.9v3h5.1V107.2z M183.7,98.9V99h-2l-1.4-1.3L179,99h-2
		v-0.1l2.6-2.4h1.5L183.7,98.9z"/>
	<path class="st2" d="M196.4,112.7h-2.6l-5.1-8.4v8.4H186V99.9h2.6l5.1,8.4v-8.4h2.6V112.7z"/>
</g>
<g>
	<rect x="27.4" y="142.4" class="st3" width="185.7" height="79.6"/>
	<path class="st2" d="M43.1,145.2h-3.4v9.2h-0.8v-9.2h-3.4v-0.7h7.7V145.2z"/>
	<path class="st2" d="M51.3,146.4c0,0.3,0,0.6-0.1,0.9s-0.2,0.5-0.3,0.7s-0.3,0.3-0.6,0.4s-0.5,0.2-0.9,0.2v5.9h-0.8l0-0.9
		c-0.2,0.3-0.5,0.6-0.9,0.8s-0.9,0.3-1.4,0.3c-0.4,0-0.7-0.1-1-0.2s-0.6-0.3-0.8-0.5s-0.4-0.5-0.5-0.9s-0.2-0.8-0.2-1.3V147h0.8v4.8
		c0,0.4,0,0.7,0.1,1s0.2,0.5,0.4,0.6s0.3,0.3,0.5,0.3s0.4,0.1,0.7,0.1c0.3,0,0.6,0,0.9-0.1s0.5-0.2,0.6-0.3s0.3-0.3,0.5-0.5
		s0.2-0.4,0.3-0.6V147h0.8v0.9c0.3,0,0.5-0.1,0.6-0.1s0.3-0.2,0.4-0.3s0.1-0.3,0.2-0.5s0-0.4,0-0.7H51.3z M47.3,146h-0.7l-1.5-1.9h1
		L47.3,146z"/>
	<path class="st2" d="M56.3,147l0,1.3c0.1-0.2,0.3-0.4,0.4-0.6s0.4-0.3,0.6-0.4s0.4-0.2,0.7-0.3s0.5-0.1,0.8-0.1
		c0.4,0,0.7,0.1,1,0.2s0.5,0.3,0.7,0.5s0.4,0.5,0.5,0.8s0.2,0.8,0.2,1.2v4.8h-0.8v-4.8c0-0.4,0-0.7-0.1-1s-0.2-0.5-0.3-0.6
		s-0.3-0.3-0.6-0.3s-0.5-0.1-0.7-0.1c-0.3,0-0.6,0-0.8,0.1s-0.4,0.2-0.6,0.4s-0.3,0.4-0.5,0.6s-0.2,0.4-0.3,0.7v5.1h-0.8V147H56.3z"
		/>
	<path class="st2" d="M62.8,150.6c0-0.6,0.1-1.1,0.2-1.6s0.3-0.9,0.6-1.2s0.5-0.6,0.9-0.8s0.8-0.3,1.2-0.3c0.5,0,1,0.1,1.4,0.3
		s0.7,0.5,0.9,0.9l0-1.1h0.8v7.3c0,0.5-0.1,0.9-0.2,1.3s-0.3,0.7-0.6,1s-0.6,0.5-0.9,0.6s-0.8,0.2-1.2,0.2c-0.2,0-0.5,0-0.7-0.1
		s-0.5-0.1-0.7-0.2s-0.4-0.2-0.6-0.4s-0.4-0.3-0.5-0.6l0.5-0.5c0.3,0.4,0.6,0.6,1,0.8s0.7,0.3,1.1,0.3c0.4,0,0.7-0.1,0.9-0.2
		s0.5-0.3,0.7-0.5s0.3-0.4,0.4-0.7s0.1-0.6,0.1-1v-0.9c-0.2,0.3-0.6,0.6-0.9,0.8s-0.8,0.3-1.4,0.3c-0.4,0-0.8-0.1-1.2-0.3
		s-0.6-0.4-0.9-0.8s-0.4-0.7-0.6-1.2s-0.2-1-0.2-1.5V150.6z M63.7,150.8c0,0.4,0,0.8,0.1,1.2s0.2,0.7,0.4,1s0.4,0.5,0.7,0.6
		s0.6,0.2,1,0.2c0.3,0,0.5,0,0.8-0.1s0.4-0.2,0.6-0.3s0.3-0.3,0.5-0.4s0.2-0.3,0.3-0.5v-3.4c-0.1-0.2-0.2-0.4-0.3-0.6
		s-0.3-0.3-0.4-0.5s-0.4-0.2-0.6-0.3s-0.5-0.1-0.8-0.1c-0.4,0-0.7,0.1-1,0.2s-0.5,0.4-0.7,0.6s-0.3,0.6-0.4,1s-0.1,0.8-0.1,1.2
		V150.8z"/>
	<path class="st2" d="M75.7,153.5c-0.2,0.3-0.5,0.6-0.9,0.8s-0.9,0.3-1.4,0.3c-0.4,0-0.7-0.1-1-0.2s-0.6-0.3-0.8-0.5
		s-0.4-0.5-0.5-0.9s-0.2-0.8-0.2-1.3V147h0.8v4.8c0,0.4,0,0.7,0.1,1s0.2,0.5,0.4,0.6s0.3,0.3,0.5,0.3s0.4,0.1,0.7,0.1
		c0.3,0,0.6,0,0.9-0.1s0.5-0.2,0.6-0.3s0.3-0.3,0.5-0.5s0.2-0.4,0.3-0.6V147h0.8v7.4h-0.8L75.7,153.5z"/>
	<path class="st2" d="M79.7,145H79l-1.2-1.6h0.9L79.7,145z M78.2,150.6c0-0.5,0.1-1,0.2-1.5s0.4-0.8,0.7-1.2s0.6-0.6,1-0.8
		s0.9-0.3,1.4-0.3c0.5,0,1,0.1,1.4,0.3s0.8,0.4,1,0.8s0.5,0.7,0.7,1.2s0.2,1,0.2,1.5v0.2c0,0.5-0.1,1-0.2,1.5s-0.4,0.8-0.7,1.2
		s-0.6,0.6-1,0.8s-0.9,0.3-1.4,0.3s-1-0.1-1.4-0.3s-0.8-0.4-1-0.8s-0.5-0.7-0.7-1.2s-0.2-1-0.2-1.5V150.6z M79,150.8
		c0,0.4,0.1,0.8,0.2,1.2s0.3,0.7,0.5,1s0.5,0.5,0.8,0.7s0.7,0.2,1.1,0.2s0.8-0.1,1.1-0.2s0.6-0.4,0.8-0.7s0.4-0.6,0.5-1
		s0.2-0.8,0.2-1.2v-0.2c0-0.4-0.1-0.8-0.2-1.1s-0.3-0.7-0.5-1s-0.5-0.5-0.8-0.7s-0.7-0.2-1.1-0.2c-0.4,0-0.7,0.1-1.1,0.2
		s-0.6,0.4-0.8,0.7s-0.4,0.6-0.5,1s-0.2,0.7-0.2,1.1V150.8z M83.7,146h-1l-1.3-1.2l-1.3,1.2h-1l1.8-1.7h0.8L83.7,146z"/>
	<path class="st2" d="M87.2,147l0,1.3c0.1-0.2,0.3-0.4,0.4-0.6s0.4-0.3,0.6-0.4s0.4-0.2,0.7-0.3s0.5-0.1,0.8-0.1
		c0.4,0,0.7,0.1,1,0.2s0.5,0.3,0.7,0.5s0.4,0.5,0.5,0.8s0.2,0.8,0.2,1.2v4.8h-0.8v-4.8c0-0.4,0-0.7-0.1-1s-0.2-0.5-0.3-0.6
		s-0.3-0.3-0.6-0.3s-0.5-0.1-0.7-0.1c-0.3,0-0.6,0-0.8,0.1s-0.4,0.2-0.6,0.4s-0.3,0.4-0.5,0.6s-0.2,0.4-0.3,0.7v5.1h-0.8V147H87.2z"
		/>
	<path class="st2" d="M98.3,147l0,1.3c0.1-0.2,0.3-0.4,0.4-0.6s0.4-0.3,0.6-0.4s0.4-0.2,0.7-0.3s0.5-0.1,0.8-0.1
		c0.4,0,0.7,0.1,1,0.2s0.5,0.3,0.7,0.5s0.4,0.5,0.5,0.8s0.2,0.8,0.2,1.2v4.8h-0.8v-4.8c0-0.4,0-0.7-0.1-1s-0.2-0.5-0.3-0.6
		s-0.3-0.3-0.6-0.3s-0.5-0.1-0.7-0.1c-0.3,0-0.6,0-0.8,0.1s-0.4,0.2-0.6,0.4s-0.3,0.4-0.5,0.6s-0.2,0.4-0.3,0.7v5.1h-0.8V147H98.3z"
		/>
	<path class="st2" d="M112.7,146.4c0,0.3,0,0.6-0.1,0.9s-0.2,0.5-0.3,0.7s-0.3,0.3-0.6,0.4s-0.5,0.2-0.9,0.2v5.9H110l0-0.9
		c-0.2,0.3-0.5,0.6-0.9,0.8s-0.9,0.3-1.4,0.3c-0.4,0-0.7-0.1-1-0.2s-0.6-0.3-0.8-0.5s-0.4-0.5-0.5-0.9s-0.2-0.8-0.2-1.3V147h0.8v4.8
		c0,0.4,0,0.7,0.1,1s0.2,0.5,0.4,0.6s0.3,0.3,0.5,0.3s0.4,0.1,0.7,0.1c0.3,0,0.6,0,0.9-0.1s0.5-0.2,0.6-0.3s0.3-0.3,0.5-0.5
		s0.2-0.4,0.3-0.6V147h0.8v0.9c0.3,0,0.5-0.1,0.6-0.1s0.3-0.2,0.4-0.3s0.1-0.3,0.2-0.5s0-0.4,0-0.7H112.7z"/>
	<path class="st2" d="M113,150.6c0-0.5,0.1-1,0.2-1.5s0.4-0.8,0.7-1.2s0.6-0.6,1-0.8s0.9-0.3,1.4-0.3c0.5,0,0.9,0.1,1.3,0.3
		s0.7,0.4,1,0.7c0.2,0,0.4-0.1,0.6-0.2s0.3-0.2,0.4-0.3s0.1-0.3,0.2-0.5s0-0.4,0-0.7h0.7c0,0.3,0,0.6-0.1,0.8s-0.1,0.5-0.2,0.6
		s-0.3,0.3-0.5,0.5s-0.4,0.2-0.7,0.2c0.2,0.3,0.3,0.6,0.4,1s0.1,0.8,0.1,1.2v0.2c0,0.5-0.1,1-0.2,1.5s-0.4,0.8-0.7,1.2
		s-0.6,0.6-1,0.8s-0.9,0.3-1.4,0.3s-1-0.1-1.4-0.3s-0.8-0.4-1-0.8s-0.5-0.7-0.7-1.2s-0.2-1-0.2-1.5V150.6z M113.8,150.8
		c0,0.4,0.1,0.8,0.2,1.2s0.3,0.7,0.5,1s0.5,0.5,0.8,0.7s0.7,0.2,1.1,0.2s0.8-0.1,1.1-0.2s0.6-0.4,0.8-0.7s0.4-0.6,0.5-1
		s0.2-0.8,0.2-1.2v-0.2c0-0.4-0.1-0.8-0.2-1.1s-0.3-0.7-0.5-1s-0.5-0.5-0.8-0.7s-0.7-0.2-1.1-0.2c-0.4,0-0.7,0.1-1.1,0.2
		s-0.6,0.4-0.8,0.7s-0.4,0.6-0.5,1s-0.2,0.7-0.2,1.1V150.8z M117.2,144h1l-1.6,1.9h-0.7L117.2,144z"/>
	<path class="st2" d="M124,153.9c0.3,0,0.5,0,0.7-0.1s0.5-0.2,0.6-0.3s0.3-0.3,0.5-0.5s0.2-0.5,0.2-0.7h0.8c0,0.4-0.1,0.7-0.3,1
		s-0.4,0.6-0.6,0.8s-0.6,0.4-0.9,0.5s-0.7,0.2-1.1,0.2c-0.5,0-1-0.1-1.4-0.3s-0.7-0.5-1-0.8s-0.5-0.7-0.6-1.2s-0.2-0.9-0.2-1.5v-0.3
		c0-0.5,0.1-1,0.2-1.5s0.3-0.8,0.6-1.2s0.6-0.6,1-0.8s0.8-0.3,1.4-0.3c0.4,0,0.8,0.1,1.1,0.2s0.6,0.3,0.9,0.5s0.5,0.5,0.6,0.8
		s0.2,0.7,0.3,1.1h-0.8c0-0.3-0.1-0.6-0.2-0.8s-0.3-0.4-0.4-0.6s-0.4-0.3-0.6-0.4s-0.5-0.1-0.8-0.1c-0.4,0-0.8,0.1-1.1,0.2
		s-0.5,0.4-0.7,0.7s-0.3,0.6-0.4,1s-0.1,0.7-0.1,1.1v0.3c0,0.4,0,0.8,0.1,1.1s0.2,0.7,0.4,1s0.4,0.5,0.7,0.7S123.6,153.9,124,153.9z
		"/>
	<path class="st2" d="M131.6,150.6c0-0.6,0.1-1.1,0.2-1.6s0.3-0.9,0.6-1.2s0.5-0.6,0.9-0.8s0.8-0.3,1.2-0.3c0.5,0,1,0.1,1.3,0.3
		s0.7,0.5,0.9,0.8l0-1h0.8v10.2h-0.8v-3.8c-0.3,0.3-0.6,0.6-0.9,0.8s-0.8,0.3-1.3,0.3c-0.4,0-0.8-0.1-1.2-0.3s-0.7-0.4-0.9-0.8
		s-0.4-0.7-0.6-1.2s-0.2-1-0.2-1.5V150.6z M132.4,150.8c0,0.4,0,0.8,0.1,1.2s0.2,0.7,0.4,1s0.4,0.5,0.7,0.6s0.6,0.2,1,0.2
		c0.3,0,0.5,0,0.7-0.1s0.4-0.2,0.6-0.3s0.3-0.2,0.5-0.4s0.2-0.3,0.3-0.5V149c-0.1-0.2-0.2-0.3-0.3-0.5s-0.3-0.3-0.4-0.4
		s-0.4-0.2-0.6-0.3s-0.5-0.1-0.8-0.1c-0.4,0-0.7,0.1-1,0.2s-0.5,0.4-0.7,0.7s-0.3,0.6-0.4,1s-0.1,0.8-0.1,1.2V150.8z"/>
	<path class="st2" d="M144.5,153.5c-0.2,0.3-0.5,0.6-0.9,0.8s-0.9,0.3-1.4,0.3c-0.4,0-0.7-0.1-1-0.2s-0.6-0.3-0.8-0.5
		s-0.4-0.5-0.5-0.9s-0.2-0.8-0.2-1.3V147h0.8v4.8c0,0.4,0,0.7,0.1,1s0.2,0.5,0.4,0.6s0.3,0.3,0.5,0.3s0.4,0.1,0.7,0.1
		c0.3,0,0.6,0,0.9-0.1s0.5-0.2,0.6-0.3s0.3-0.3,0.5-0.5s0.2-0.4,0.3-0.6V147h0.8v7.4h-0.8L144.5,153.5z"/>
	<path class="st2" d="M149.7,153.2l2.2-6.2h0.9l-3.1,8.6c-0.1,0.2-0.1,0.4-0.2,0.6s-0.2,0.4-0.4,0.6s-0.4,0.3-0.6,0.5
		s-0.5,0.2-0.9,0.2c0,0-0.1,0-0.2,0s-0.1,0-0.2,0s-0.1,0-0.2,0s-0.1,0-0.1,0l0-0.7c0.1,0,0.1,0,0.2,0s0.2,0,0.2,0
		c0.2,0,0.4,0,0.6-0.1s0.3-0.1,0.4-0.3s0.2-0.3,0.3-0.4s0.2-0.4,0.3-0.6l0.4-1l-2.8-7.3h0.9L149.7,153.2z M150.7,144h1l-1.6,1.9
		h-0.7L150.7,144z"/>
	<path class="st2" d="M158.3,148.3c0.1-0.2,0.3-0.4,0.4-0.6s0.4-0.3,0.6-0.4s0.4-0.2,0.7-0.3s0.5-0.1,0.7-0.1c0.4,0,0.7,0.1,1,0.2
		s0.5,0.3,0.7,0.5s0.4,0.5,0.5,0.8s0.2,0.8,0.2,1.2v4.8h-0.8v-4.8c0-0.4,0-0.7-0.1-1s-0.2-0.5-0.3-0.6s-0.3-0.3-0.6-0.3
		s-0.5-0.1-0.7-0.1c-0.3,0-0.6,0-0.8,0.1s-0.4,0.2-0.6,0.4s-0.3,0.4-0.5,0.6s-0.2,0.4-0.3,0.7v5.1h-0.8v-10.5h0.8V148.3z"/>
	<path class="st2" d="M165.1,144.9c0-0.2,0.1-0.3,0.2-0.4s0.2-0.2,0.4-0.2s0.3,0.1,0.4,0.2s0.2,0.2,0.2,0.4s-0.1,0.3-0.2,0.4
		s-0.2,0.2-0.4,0.2s-0.3-0.1-0.4-0.2S165.1,145,165.1,144.9z M166.1,154.4h-0.8V147h0.8V154.4z"/>
	<path class="st2" d="M171.1,154.6c-0.5,0-0.9-0.1-1.3-0.3s-0.8-0.4-1-0.8s-0.5-0.7-0.7-1.1s-0.2-0.9-0.2-1.5v-0.3
		c0-0.6,0.1-1.1,0.3-1.5s0.4-0.9,0.7-1.2s0.6-0.6,1-0.8s0.8-0.3,1.2-0.3c0.5,0,0.9,0.1,1.3,0.3s0.7,0.4,0.9,0.7s0.4,0.7,0.6,1.1
		s0.2,0.9,0.2,1.4v0.5h-5.3v0.2c0,0.4,0.1,0.8,0.2,1.1s0.3,0.7,0.5,0.9s0.5,0.5,0.8,0.6s0.7,0.2,1,0.2c0.4,0,0.8-0.1,1.2-0.2
		s0.6-0.4,0.9-0.8l0.5,0.4c-0.1,0.2-0.3,0.3-0.4,0.5s-0.3,0.3-0.6,0.4s-0.5,0.2-0.7,0.3S171.5,154.6,171.1,154.6z M171,147.6
		c-0.3,0-0.6,0.1-0.9,0.2s-0.5,0.3-0.7,0.5s-0.4,0.5-0.5,0.8s-0.2,0.6-0.3,1h4.4V150c0-0.3-0.1-0.6-0.2-0.9s-0.2-0.5-0.4-0.8
		s-0.4-0.4-0.7-0.5S171.3,147.6,171,147.6z M170.7,144.3h0.8l1.8,1.7h-1l-1.3-1.2l-1.3,1.2h-1L170.7,144.3z M173.9,143.4h0.9
		l-1.2,1.6h-0.7L173.9,143.4z"/>
	<path class="st2" d="M176.3,147l0,1.2c0.1-0.2,0.3-0.4,0.4-0.6s0.3-0.3,0.5-0.4s0.4-0.2,0.7-0.3s0.5-0.1,0.8-0.1
		c0.5,0,1,0.1,1.4,0.3s0.7,0.6,0.8,1.1c0.1-0.2,0.3-0.4,0.4-0.6s0.4-0.3,0.6-0.5s0.4-0.2,0.7-0.3s0.5-0.1,0.8-0.1
		c0.4,0,0.7,0.1,1,0.2s0.6,0.3,0.8,0.5s0.4,0.5,0.5,0.8s0.2,0.8,0.2,1.2v4.8H185v-4.8c0-0.4,0-0.7-0.1-1s-0.2-0.5-0.4-0.6
		s-0.3-0.3-0.6-0.3s-0.5-0.1-0.7-0.1c-0.3,0-0.6,0.1-0.9,0.2s-0.5,0.3-0.7,0.5s-0.3,0.4-0.4,0.6s-0.2,0.4-0.2,0.7v4.9h-0.8v-4.9
		c0-0.4,0-0.7-0.1-0.9s-0.2-0.4-0.4-0.6s-0.3-0.3-0.6-0.3s-0.5-0.1-0.7-0.1c-0.3,0-0.6,0-0.8,0.1s-0.4,0.2-0.6,0.4s-0.3,0.4-0.4,0.6
		s-0.2,0.4-0.3,0.6v5.1h-0.8V147H176.3z"/>
	<path class="st2" d="M192.6,145.1v1.9h1.5v0.7h-1.5v4.9c0,0.3,0,0.5,0.1,0.6s0.1,0.3,0.2,0.4s0.2,0.1,0.3,0.2s0.2,0,0.4,0
		c0.1,0,0.2,0,0.4,0s0.2,0,0.3,0l0,0.7c-0.1,0-0.2,0.1-0.4,0.1s-0.3,0-0.5,0c-0.2,0-0.4,0-0.6-0.1s-0.4-0.2-0.5-0.3
		s-0.3-0.3-0.3-0.6s-0.1-0.6-0.1-0.9v-4.9h-1.4V147h1.4v-1.9H192.6z"/>
	<path class="st2" d="M200.5,154.4c0-0.1-0.1-0.3-0.1-0.5s0-0.4-0.1-0.6c-0.1,0.2-0.3,0.3-0.4,0.5s-0.4,0.3-0.6,0.4
		s-0.4,0.2-0.7,0.3s-0.5,0.1-0.8,0.1c-0.4,0-0.7-0.1-1-0.2s-0.5-0.3-0.8-0.4s-0.4-0.4-0.5-0.7s-0.2-0.5-0.2-0.8c0-0.4,0.1-0.7,0.2-1
		s0.4-0.5,0.7-0.7s0.6-0.4,1.1-0.5s0.9-0.2,1.4-0.2h1.5v-0.8c0-0.5-0.2-0.9-0.5-1.2s-0.8-0.5-1.4-0.5c-0.3,0-0.6,0-0.8,0.1
		s-0.5,0.2-0.6,0.3s-0.3,0.3-0.4,0.5s-0.1,0.4-0.1,0.6l-0.8,0c0-0.3,0.1-0.5,0.2-0.8s0.3-0.5,0.6-0.7s0.5-0.4,0.9-0.5
		s0.7-0.2,1.2-0.2c0.4,0,0.8,0.1,1.1,0.2s0.6,0.3,0.9,0.5s0.4,0.5,0.6,0.8s0.2,0.7,0.2,1.1v3.6c0,0.1,0,0.3,0,0.4s0,0.3,0,0.4
		s0,0.2,0.1,0.4s0.1,0.2,0.1,0.3v0.1H200.5z M197.9,153.8c0.3,0,0.6,0,0.8-0.1s0.5-0.2,0.7-0.3s0.4-0.3,0.5-0.5s0.3-0.4,0.4-0.6
		v-1.6h-1.4c-0.4,0-0.8,0-1.1,0.1s-0.6,0.2-0.8,0.3s-0.4,0.3-0.5,0.5s-0.2,0.4-0.2,0.7c0,0.2,0,0.4,0.1,0.6s0.2,0.3,0.3,0.5
		s0.3,0.2,0.5,0.3S197.7,153.8,197.9,153.8z M197.6,156c0-0.2,0.1-0.3,0.2-0.4s0.2-0.2,0.4-0.2c0.2,0,0.3,0.1,0.4,0.2
		s0.2,0.2,0.2,0.4c0,0.2-0.1,0.3-0.2,0.4s-0.2,0.2-0.4,0.2c-0.2,0-0.3-0.1-0.4-0.2S197.6,156.1,197.6,156z"/>
	<path class="st2" d="M203.3,144.9c0-0.2,0.1-0.3,0.2-0.4s0.2-0.2,0.4-0.2s0.3,0.1,0.4,0.2s0.2,0.2,0.2,0.4s-0.1,0.3-0.2,0.4
		s-0.2,0.2-0.4,0.2s-0.3-0.1-0.4-0.2S203.3,145,203.3,144.9z M204.2,154.4h-0.8V147h0.8V154.4z"/>
	<path class="st2" d="M97.1,170.5h4.9v0.7h-5.8v-10h0.8V170.5z"/>
	<path class="st2" d="M103,167.4c0-0.5,0.1-1,0.2-1.5s0.4-0.8,0.7-1.2s0.6-0.6,1-0.8s0.9-0.3,1.4-0.3c0.5,0,1,0.1,1.4,0.3
		s0.8,0.4,1,0.8s0.5,0.7,0.7,1.2s0.2,1,0.2,1.5v0.2c0,0.5-0.1,1-0.2,1.5s-0.4,0.8-0.7,1.2s-0.6,0.6-1,0.8s-0.9,0.3-1.4,0.3
		s-1-0.1-1.4-0.3s-0.8-0.4-1-0.8s-0.5-0.7-0.7-1.2s-0.2-1-0.2-1.5V167.4z M103.8,167.6c0,0.4,0.1,0.8,0.2,1.2s0.3,0.7,0.5,1
		s0.5,0.5,0.8,0.7s0.7,0.2,1.1,0.2s0.8-0.1,1.1-0.2s0.6-0.4,0.8-0.7s0.4-0.6,0.5-1s0.2-0.8,0.2-1.2v-0.2c0-0.4-0.1-0.8-0.2-1.1
		s-0.3-0.7-0.5-1s-0.5-0.5-0.8-0.7s-0.7-0.2-1.1-0.2c-0.4,0-0.7,0.1-1.1,0.2s-0.6,0.4-0.8,0.7s-0.4,0.6-0.5,1s-0.2,0.7-0.2,1.1
		V167.6z"/>
	<path class="st2" d="M112,163.8l0,1.3c0.1-0.2,0.3-0.4,0.4-0.6s0.4-0.3,0.6-0.4s0.4-0.2,0.7-0.3s0.5-0.1,0.8-0.1
		c0.4,0,0.7,0.1,1,0.2s0.5,0.3,0.7,0.5s0.4,0.5,0.5,0.8s0.2,0.8,0.2,1.2v4.8H116v-4.8c0-0.4,0-0.7-0.1-1s-0.2-0.5-0.3-0.6
		s-0.3-0.3-0.6-0.3s-0.5-0.1-0.7-0.1c-0.3,0-0.6,0-0.8,0.1s-0.4,0.2-0.6,0.4s-0.3,0.4-0.5,0.6s-0.2,0.4-0.3,0.7v5.1h-0.8v-7.4H112z"
		/>
	<path class="st2" d="M118.6,167.4c0-0.6,0.1-1.1,0.2-1.6s0.3-0.9,0.6-1.2s0.5-0.6,0.9-0.8s0.8-0.3,1.2-0.3c0.5,0,1,0.1,1.4,0.3
		s0.7,0.5,0.9,0.9l0-1.1h0.8v7.3c0,0.5-0.1,0.9-0.2,1.3s-0.3,0.7-0.6,1s-0.6,0.5-0.9,0.6s-0.8,0.2-1.2,0.2c-0.2,0-0.5,0-0.7-0.1
		s-0.5-0.1-0.7-0.2s-0.4-0.2-0.6-0.4s-0.4-0.3-0.5-0.6l0.5-0.5c0.3,0.4,0.6,0.6,1,0.8s0.7,0.3,1.1,0.3c0.4,0,0.7-0.1,0.9-0.2
		s0.5-0.3,0.7-0.5s0.3-0.4,0.4-0.7s0.1-0.6,0.1-1v-0.9c-0.2,0.3-0.6,0.6-0.9,0.8s-0.8,0.3-1.4,0.3c-0.4,0-0.8-0.1-1.2-0.3
		s-0.6-0.4-0.9-0.8s-0.4-0.7-0.6-1.2s-0.2-1-0.2-1.5V167.4z M119.5,167.6c0,0.4,0,0.8,0.1,1.2s0.2,0.7,0.4,1s0.4,0.5,0.7,0.6
		s0.6,0.2,1,0.2c0.3,0,0.5,0,0.8-0.1s0.4-0.2,0.6-0.3s0.3-0.3,0.5-0.4s0.2-0.3,0.3-0.5v-3.4c-0.1-0.2-0.2-0.4-0.3-0.6
		s-0.3-0.3-0.4-0.5s-0.4-0.2-0.6-0.3s-0.5-0.1-0.8-0.1c-0.4,0-0.7,0.1-1,0.2s-0.5,0.4-0.7,0.6s-0.3,0.6-0.4,1s-0.1,0.8-0.1,1.2
		V167.6z"/>
	<path class="st2" d="M135.7,168.4h-4.5l-1,2.8h-0.9l3.8-10h0.8l3.8,10h-0.9L135.7,168.4z M131.4,167.7h4l-2-5.4L131.4,167.7z"/>
	<path class="st2" d="M139.7,163.8l0,1.3c0.1-0.2,0.3-0.4,0.4-0.6s0.4-0.3,0.6-0.4s0.4-0.2,0.7-0.3s0.5-0.1,0.8-0.1
		c0.4,0,0.7,0.1,1,0.2s0.5,0.3,0.7,0.5s0.4,0.5,0.5,0.8s0.2,0.8,0.2,1.2v4.8h-0.8v-4.8c0-0.4,0-0.7-0.1-1s-0.2-0.5-0.3-0.6
		s-0.3-0.3-0.6-0.3s-0.5-0.1-0.7-0.1c-0.3,0-0.6,0-0.8,0.1s-0.4,0.2-0.6,0.4s-0.3,0.4-0.5,0.6s-0.2,0.4-0.3,0.7v5.1h-0.8v-7.4H139.7
		z"/>
</g>
<g>
</g>
<g>
</g>
<g>
</g>
<g>
</g>
<g>
</g>
<g>
</g>
</svg>
