<?xml version="1.0" encoding="utf-8"?>
<!-- Generator: Adobe Illustrator 23.0.0, SVG Export Plug-In . SVG Version: 6.00 Build 0)  -->
<svg version="1.1" id="Layer_1" xmlns="http://www.w3.org/2000/svg" xmlns:xlink="http://www.w3.org/1999/xlink" x="0px" y="0px"
	 viewBox="0 0 240.5 240.5" style="enable-background:new 0 0 240.5 240.5;" xml:space="preserve">
<style type="text/css">
	.st0{fill:#716A8B;}
	.st1{fill:#322D4D;}
	.st2{fill:#FFFFFF;}
	.st3{fill:none;}
</style>
<circle class="st0" cx="120.2" cy="120.2" r="120.2"/>
<circle class="st1" cx="120.2" cy="120.2" r="105.8"/>
<g>
	<path class="st2" d="M120.1,53.6c0,13.6-6.4,21.2-17.8,21.2c-11.5,0-17.9-7.6-17.9-21.2c0-13.6,6.4-21.2,17.9-21.2
		C113.8,32.4,120.1,40,120.1,53.6z M91.7,53.6c0,10.6,3.5,15.6,10.6,15.6c7,0,10.6-5,10.6-15.6c0-10.7-3.5-15.6-10.6-15.6
		C95.2,38,91.7,42.9,91.7,53.6z"/>
	<path class="st2" d="M144.8,58V48h6.6v10h6.1v6.3h-6.1v10.3h-6.6V64.3h-20V59l14.3-26.4h6.8L132.4,58H144.8z"/>
</g>
<g>
	<path class="st2" d="M40.1,103.6h-2.6v-5.5h-5.1v5.5h-2.6V90.8h2.6V96h5.1v-5.2h2.6V103.6z"/>
	<path class="st2" d="M49.8,101h-4.6l-0.9,2.6h-2.8l4.8-12.8h2.4l4.8,12.8h-2.8L49.8,101z M48.8,90.1h-2.1l-2.4-2.7H47L48.8,90.1z
		 M45.9,98.8h3.2L47.5,94L45.9,98.8z"/>
	<path class="st2" d="M58.1,90.8l3.3,9.3l3.3-9.3h3.5v12.8h-2.6v-3.5l0.3-6l-3.5,9.5h-1.8l-3.4-9.5l0.3,6v3.5h-2.6V90.8H58.1z"/>
	<path class="st2" d="M77.6,101.5h5.6v2.1h-8.2V90.8h2.6V101.5z"/>
	<path class="st2" d="M94.4,90.8v2c0.4,0,0.7-0.1,0.9-0.3s0.4-0.3,0.5-0.6s0.2-0.5,0.2-0.8s0.1-0.7,0.1-1.1h1.7
		c0,0.6-0.1,1.2-0.2,1.7s-0.3,0.9-0.6,1.3s-0.6,0.6-1.1,0.8s-1,0.3-1.6,0.3v5.1c0,0.7-0.1,1.4-0.4,2s-0.6,1-1,1.4s-1,0.7-1.6,0.9
		s-1.3,0.3-2,0.3c-0.7,0-1.4-0.1-2-0.3s-1.1-0.5-1.6-0.9s-0.8-0.9-1-1.4s-0.4-1.2-0.4-2v-8.4h2.6v8.4c0,0.8,0.2,1.4,0.6,1.8
		s1,0.6,1.7,0.6c0.7,0,1.3-0.2,1.7-0.6s0.6-1,0.6-1.8v-8.4H94.4z"/>
	<path class="st2" d="M108,97.5c0,1-0.1,1.9-0.4,2.6s-0.6,1.4-1.1,2s-1.1,1-1.7,1.2s-1.4,0.4-2.2,0.4s-1.5-0.1-2.2-0.4
		s-1.2-0.7-1.7-1.2s-0.9-1.2-1.1-2s-0.4-1.7-0.4-2.6v-0.6c0-1,0.1-1.8,0.4-2.6s0.6-1.4,1.1-2s1.1-1,1.7-1.3s1.4-0.4,2.2-0.4
		s1.5,0.1,2.2,0.4s1.2,0.7,1.7,1.2c0.4-0.1,0.7-0.4,0.9-0.8s0.2-1,0.2-1.7h1.7c0,1-0.2,1.8-0.5,2.4s-0.8,1.1-1.5,1.3
		c0.2,0.5,0.4,1,0.5,1.6s0.2,1.2,0.2,1.8V97.5z M105.3,96.9c0-1.3-0.2-2.4-0.7-3.1s-1.2-1-2.1-1s-1.6,0.3-2.1,1s-0.7,1.7-0.7,3.1
		v0.6c0,0.7,0.1,1.3,0.2,1.8s0.3,0.9,0.5,1.3s0.5,0.6,0.9,0.8s0.7,0.3,1.2,0.3c0.9,0,1.6-0.4,2-1.1s0.7-1.7,0.7-3.1V96.9z
		 M101,105.7c0-0.2,0-0.3,0.1-0.5s0.2-0.3,0.3-0.4s0.3-0.2,0.4-0.3s0.4-0.1,0.6-0.1s0.4,0,0.6,0.1s0.3,0.1,0.4,0.3s0.2,0.2,0.3,0.4
		s0.1,0.3,0.1,0.5c0,0.2,0,0.3-0.1,0.5s-0.2,0.3-0.3,0.4s-0.3,0.2-0.4,0.3s-0.4,0.1-0.6,0.1s-0.4,0-0.6-0.1s-0.3-0.1-0.4-0.3
		s-0.2-0.2-0.3-0.4S101,105.8,101,105.7z"/>
	<path class="st2" d="M120.5,103.6h-2.6l-5.1-8.4v8.4h-2.6V90.8h2.6l5.1,8.4v-8.4h2.6V103.6z"/>
	<path class="st2" d="M133,102c-0.2,0.2-0.4,0.4-0.6,0.6s-0.6,0.4-1,0.6s-0.9,0.3-1.4,0.4s-1.2,0.2-1.9,0.2c-0.8,0-1.6-0.1-2.3-0.4
		s-1.3-0.7-1.8-1.2s-0.9-1.2-1.1-1.9s-0.4-1.6-0.4-2.6v-0.8c0-1,0.1-1.9,0.4-2.6s0.6-1.4,1.1-1.9s1-0.9,1.7-1.2s1.4-0.4,2.2-0.4
		c0.8,0,1.6,0.1,2.2,0.3s1.1,0.5,1.5,0.9s0.7,0.8,1,1.3s0.4,1.1,0.4,1.7h-2.6c-0.1-0.3-0.1-0.6-0.2-0.9s-0.3-0.5-0.5-0.7
		s-0.4-0.3-0.7-0.4s-0.6-0.1-1-0.1c-0.9,0-1.6,0.3-2.1,1s-0.7,1.7-0.7,3v0.8c0,1.3,0.3,2.4,0.8,3s1.3,1,2.2,1c0.3,0,0.6,0,0.8-0.1
		s0.4-0.1,0.6-0.2s0.3-0.1,0.4-0.2s0.2-0.1,0.3-0.2v-2.2h-2.4v-1.9h5V102z"/>
	<path class="st2" d="M143.6,98.5l-1.4,1.5v3.7h-2.6V90.8h2.6v5.8l1.2-1.6l3.3-4.2h3.2l-4.5,5.7l4.7,7.1h-3.1L143.6,98.5z"/>
	<path class="st2" d="M161.4,103.6h-2.6v-5.5h-5.1v5.5H151V90.8h2.6V96h5.1v-5.2h2.6V103.6z"/>
	<path class="st2" d="M174.2,97.5c0,1-0.1,1.9-0.4,2.6s-0.6,1.4-1.1,2s-1.1,1-1.7,1.2s-1.4,0.4-2.2,0.4s-1.5-0.1-2.2-0.4
		s-1.2-0.7-1.7-1.2s-0.9-1.2-1.1-2s-0.4-1.7-0.4-2.6v-0.6c0-1,0.1-1.8,0.4-2.6s0.6-1.4,1.1-2s1.1-1,1.7-1.3s1.4-0.4,2.2-0.4
		s1.5,0.1,2.2,0.4s1.2,0.7,1.7,1.3s0.9,1.2,1.1,2s0.4,1.7,0.4,2.6V97.5z M171.6,96.9c0-1.3-0.2-2.4-0.7-3.1s-1.2-1-2.1-1
		s-1.6,0.3-2.1,1s-0.7,1.7-0.7,3.1v0.6c0,0.7,0.1,1.3,0.2,1.8s0.3,0.9,0.5,1.3s0.5,0.6,0.9,0.8s0.7,0.3,1.2,0.3c0.9,0,1.6-0.4,2-1.1
		s0.7-1.7,0.7-3.1V96.9z"/>
	<path class="st2" d="M183.2,101h-4.6l-0.9,2.6h-2.8l4.8-12.8h2.4l4.8,12.8h-2.8L183.2,101z M179.3,98.8h3.2l-1.6-4.8L179.3,98.8z
		 M181.4,87.4h2.8l-2.4,2.7h-2.1L181.4,87.4z"/>
	<path class="st2" d="M198.5,103.6h-2.6l-5.1-8.4v8.4h-2.6V90.8h2.6l5.1,8.4v-8.4h2.6V103.6z"/>
	<path class="st2" d="M210.9,102c-0.2,0.2-0.4,0.4-0.6,0.6s-0.6,0.4-1,0.6s-0.9,0.3-1.4,0.4s-1.2,0.2-1.9,0.2
		c-0.8,0-1.6-0.1-2.3-0.4s-1.3-0.7-1.8-1.2s-0.9-1.2-1.1-1.9s-0.4-1.6-0.4-2.6v-0.8c0-1,0.1-1.9,0.4-2.6s0.6-1.4,1.1-1.9
		s1-0.9,1.7-1.2s1.4-0.4,2.2-0.4c0.8,0,1.6,0.1,2.2,0.3s1.1,0.5,1.5,0.9s0.7,0.8,1,1.3s0.4,1.1,0.4,1.7h-2.6
		c-0.1-0.3-0.1-0.6-0.2-0.9s-0.3-0.5-0.5-0.7s-0.4-0.3-0.7-0.4s-0.6-0.1-1-0.1c-0.9,0-1.6,0.3-2.1,1s-0.7,1.7-0.7,3v0.8
		c0,1.3,0.3,2.4,0.8,3s1.3,1,2.2,1c0.3,0,0.6,0,0.8-0.1s0.4-0.1,0.6-0.2s0.3-0.1,0.4-0.2s0.2-0.1,0.3-0.2v-2.2h-2.4v-1.9h5V102z"/>
	<path class="st2" d="M43,114.5h-3.9v10.7h-2.6v-10.7h-3.9v-2.1H43V114.5z"/>
	<path class="st2" d="M54.2,112.4v2c0.4,0,0.7-0.1,0.9-0.3s0.4-0.3,0.5-0.6s0.2-0.5,0.2-0.8s0.1-0.7,0.1-1.1h1.7
		c0,0.6-0.1,1.2-0.2,1.7s-0.3,0.9-0.6,1.3s-0.6,0.6-1.1,0.8s-1,0.3-1.6,0.3v5.1c0,0.7-0.1,1.4-0.4,2s-0.6,1-1,1.4s-1,0.7-1.6,0.9
		s-1.3,0.3-2,0.3c-0.7,0-1.4-0.1-2-0.3s-1.1-0.5-1.6-0.9s-0.8-0.9-1-1.4s-0.4-1.2-0.4-2v-8.4H47v8.4c0,0.8,0.2,1.4,0.6,1.8
		s1,0.6,1.7,0.6c0.7,0,1.3-0.2,1.7-0.6s0.6-1,0.6-1.8v-8.4H54.2z M48.2,127.3c0-0.2,0-0.3,0.1-0.5s0.2-0.3,0.3-0.4s0.3-0.2,0.4-0.3
		s0.4-0.1,0.6-0.1s0.4,0,0.6,0.1s0.3,0.1,0.4,0.3s0.2,0.2,0.3,0.4s0.1,0.3,0.1,0.5c0,0.2,0,0.3-0.1,0.5s-0.2,0.3-0.3,0.4
		s-0.3,0.2-0.4,0.3s-0.4,0.1-0.6,0.1s-0.4,0-0.6-0.1s-0.3-0.1-0.4-0.3s-0.2-0.2-0.3-0.4S48.2,127.5,48.2,127.3z"/>
	<path class="st2" d="M72.2,125.2h-2.6l-5.1-8.4v8.4h-2.6v-12.8h2.6l5.1,8.4v-8.4h2.6V125.2z"/>
	<path class="st2" d="M84.9,125.2h-2.6v-5.5h-5.1v5.5h-2.6v-12.8h2.6v5.2h5.1v-5.2h2.6V125.2z"/>
	<path class="st2" d="M90,125.2h-2.6v-12.8H90V125.2z"/>
	<path class="st2" d="M100.2,119.7h-5.1v3.4h5.9v2.1h-8.6v-12.8h8.6v2.1h-5.9v3h5.1V119.7z M100.3,111.4v0.1h-2l-1.4-1.3l-1.4,1.3
		h-2v-0.1l2.6-2.4h1.5L100.3,111.4z"/>
	<path class="st2" d="M113,125.2h-2.6l-5.1-8.4v8.4h-2.6v-12.8h2.6l5.1,8.4v-8.4h2.6V125.2z"/>
	<path class="st2" d="M129.8,120.9c0,0.7-0.2,1.2-0.4,1.8s-0.6,1-1,1.4s-1,0.7-1.6,0.9s-1.3,0.3-2.1,0.3c-0.8,0-1.6-0.1-2.2-0.4
		s-1.2-0.7-1.7-1.2s-0.8-1.2-1-1.9s-0.4-1.6-0.4-2.6v-0.8c0-0.9,0.1-1.8,0.4-2.6s0.6-1.4,1.1-1.9s1-0.9,1.7-1.2s1.4-0.4,2.2-0.4
		c0.8,0,1.5,0.1,2.1,0.3s1.1,0.5,1.6,0.9s0.8,0.9,1,1.4s0.4,1.2,0.5,1.8h-2.6c0-0.4-0.1-0.7-0.2-1s-0.3-0.5-0.4-0.7
		s-0.4-0.4-0.7-0.5s-0.7-0.2-1.1-0.2c-0.9,0-1.6,0.3-2,1s-0.7,1.7-0.7,3v0.9c0,0.7,0,1.2,0.1,1.7s0.2,0.9,0.5,1.2s0.5,0.6,0.8,0.8
		s0.7,0.3,1.2,0.3c0.4,0,0.8,0,1.1-0.1s0.6-0.2,0.8-0.4s0.4-0.4,0.5-0.7s0.2-0.6,0.2-1H129.8z"/>
	<path class="st2" d="M138.8,122.6h-4.6l-0.9,2.6h-2.8l4.8-12.8h2.4l4.8,12.8h-2.8L138.8,122.6z M139.9,111.4v0.1h-2l-1.4-1.3
		l-1.4,1.3h-2v-0.1l2.6-2.4h1.5L139.9,111.4z M134.9,120.4h3.2l-1.6-4.8L134.9,120.4z"/>
	<path class="st2" d="M154.1,125.2h-2.6l-5.1-8.4v8.4h-2.6v-12.8h2.6l5.1,8.4v-8.4h2.6V125.2z"/>
	<path class="st2" d="M160.9,125.2v-12.8h4.5c0.7,0,1.4,0.1,2,0.2s1.1,0.4,1.5,0.6s0.7,0.7,0.9,1.1s0.3,1,0.3,1.6
		c0,0.3,0,0.6-0.1,0.8s-0.2,0.5-0.3,0.8s-0.3,0.4-0.6,0.6s-0.5,0.3-0.8,0.5c0.4,0.1,0.7,0.2,1,0.4s0.5,0.4,0.7,0.7s0.3,0.5,0.4,0.8
		s0.1,0.6,0.1,0.9c0,1.2-0.4,2.2-1.2,2.8s-1.9,0.9-3.4,0.9H160.9z M163.5,117.8h2c0.7,0,1.2-0.2,1.5-0.4s0.5-0.7,0.5-1.2
		c0-0.6-0.2-1-0.5-1.3s-0.9-0.4-1.6-0.4h-1.8V117.8z M163.5,119.6v3.5h2.3c0.3,0,0.6,0,0.9-0.1s0.5-0.2,0.6-0.4s0.3-0.3,0.4-0.5
		s0.1-0.4,0.1-0.7c0-0.3,0-0.5-0.1-0.7s-0.2-0.4-0.3-0.6s-0.3-0.3-0.6-0.4s-0.5-0.1-0.9-0.1H163.5z"/>
	<path class="st2" d="M179.6,122.6h-4.6l-0.9,2.6h-2.8l4.8-12.8h2.4l4.8,12.8h-2.8L179.6,122.6z M180.4,108.9c0,0.4-0.1,0.7-0.2,1.1
		s-0.4,0.6-0.6,0.8s-0.6,0.4-1,0.5s-0.8,0.2-1.3,0.2c-0.5,0-0.9-0.1-1.3-0.2s-0.7-0.3-1-0.5s-0.5-0.5-0.6-0.8s-0.2-0.7-0.2-1.1h1.8
		c0,0.1,0,0.3,0.1,0.4s0.1,0.2,0.2,0.3s0.2,0.2,0.4,0.2s0.4,0.1,0.6,0.1s0.4,0,0.6-0.1s0.3-0.1,0.4-0.2s0.2-0.2,0.2-0.3
		s0.1-0.3,0.1-0.4H180.4z M178.5,108.6h-2l-1.8-1.9h2.4L178.5,108.6z M175.7,120.4h3.2l-1.6-4.8L175.7,120.4z"/>
	<path class="st2" d="M194.9,125.2h-2.6l-5.1-8.4v8.4h-2.6v-12.8h2.6l5.1,8.4v-8.4h2.6V125.2z"/>
	<path class="st2" d="M207.3,123.6c-0.2,0.2-0.4,0.4-0.6,0.6s-0.6,0.4-1,0.6s-0.9,0.3-1.4,0.4s-1.2,0.2-1.9,0.2
		c-0.8,0-1.6-0.1-2.3-0.4s-1.3-0.7-1.8-1.2s-0.9-1.2-1.1-1.9s-0.4-1.6-0.4-2.6v-0.8c0-1,0.1-1.9,0.4-2.6s0.6-1.4,1.1-1.9
		s1-0.9,1.7-1.2s1.4-0.4,2.2-0.4c0.8,0,1.6,0.1,2.2,0.3s1.1,0.5,1.5,0.9s0.7,0.8,1,1.3s0.4,1.1,0.4,1.7h-2.6
		c-0.1-0.3-0.1-0.6-0.2-0.9s-0.3-0.5-0.5-0.7s-0.4-0.3-0.7-0.4s-0.6-0.1-1-0.1c-0.9,0-1.6,0.3-2.1,1s-0.7,1.7-0.7,3v0.8
		c0,1.3,0.3,2.4,0.8,3s1.3,1,2.2,1c0.3,0,0.6,0,0.8-0.1s0.4-0.1,0.6-0.2s0.3-0.1,0.4-0.2s0.2-0.1,0.3-0.2v-2.2h-2.4v-1.9h5V123.6z"
		/>
</g>
<g>
	<rect x="27.4" y="142.4" class="st3" width="185.7" height="79.6"/>
	<path class="st2" d="M60.1,151.3c-0.1,0.5-0.2,1-0.4,1.4s-0.4,0.7-0.7,1s-0.7,0.5-1.1,0.6s-0.9,0.2-1.5,0.2c-0.6,0-1.1-0.1-1.5-0.3
		s-0.9-0.5-1.2-0.9s-0.6-0.9-0.8-1.4s-0.3-1.2-0.3-1.8v-1.3c0-0.7,0.1-1.3,0.3-1.8s0.4-1,0.8-1.4s0.7-0.7,1.2-0.9s1-0.3,1.6-0.3
		c0.5,0,1,0.1,1.4,0.2s0.8,0.4,1.1,0.6s0.5,0.6,0.7,1s0.3,0.9,0.4,1.4h-0.8c-0.1-0.4-0.1-0.8-0.3-1.1s-0.3-0.6-0.5-0.8
		s-0.5-0.4-0.8-0.5S57,145,56.5,145c-0.5,0-0.9,0.1-1.2,0.3s-0.7,0.4-0.9,0.8s-0.5,0.7-0.6,1.2s-0.2,1-0.2,1.5v1.3
		c0,0.5,0.1,1.1,0.2,1.5s0.3,0.9,0.6,1.2s0.5,0.6,0.9,0.8s0.8,0.3,1.2,0.3c0.9,0,1.5-0.2,2-0.6s0.7-1.1,0.8-1.9H60.1z"/>
	<path class="st2" d="M62.8,148.3c0.1-0.2,0.3-0.4,0.4-0.6s0.4-0.3,0.6-0.4s0.4-0.2,0.7-0.3s0.5-0.1,0.7-0.1c0.4,0,0.7,0.1,1,0.2
		s0.5,0.3,0.7,0.5s0.4,0.5,0.5,0.8s0.2,0.8,0.2,1.2v4.8h-0.8v-4.8c0-0.4,0-0.7-0.1-1s-0.2-0.5-0.3-0.6s-0.3-0.3-0.6-0.3
		s-0.5-0.1-0.7-0.1c-0.3,0-0.6,0-0.8,0.1s-0.4,0.2-0.6,0.4s-0.3,0.4-0.5,0.6s-0.2,0.4-0.3,0.7v5.1H62v-10.5h0.8V148.3z"/>
	<path class="st2" d="M77.1,146.4c0,0.3,0,0.6-0.1,0.9s-0.2,0.5-0.3,0.7s-0.3,0.3-0.6,0.4s-0.5,0.2-0.9,0.2v5.9h-0.8l0-0.9
		c-0.2,0.3-0.5,0.6-0.9,0.8s-0.9,0.3-1.4,0.3c-0.4,0-0.7-0.1-1-0.2s-0.6-0.3-0.8-0.5s-0.4-0.5-0.5-0.9s-0.2-0.8-0.2-1.3V147h0.8v4.8
		c0,0.4,0,0.7,0.1,1s0.2,0.5,0.4,0.6s0.3,0.3,0.5,0.3s0.4,0.1,0.7,0.1c0.3,0,0.6,0,0.9-0.1s0.5-0.2,0.6-0.3s0.3-0.3,0.5-0.5
		s0.2-0.4,0.3-0.6V147h0.8v0.9c0.3,0,0.5-0.1,0.6-0.1s0.3-0.2,0.4-0.3s0.1-0.3,0.2-0.5s0-0.4,0-0.7H77.1z M73.4,144.1h1l-1.6,1.9
		h-0.7L73.4,144.1z"/>
	<path class="st2" d="M82.5,154.4c0-0.1-0.1-0.3-0.1-0.5s0-0.4-0.1-0.6c-0.1,0.2-0.3,0.3-0.4,0.5s-0.4,0.3-0.6,0.4s-0.4,0.2-0.7,0.3
		s-0.5,0.1-0.8,0.1c-0.4,0-0.7-0.1-1-0.2s-0.5-0.3-0.8-0.4s-0.4-0.4-0.5-0.7s-0.2-0.5-0.2-0.8c0-0.4,0.1-0.7,0.2-1s0.4-0.5,0.7-0.7
		s0.6-0.4,1.1-0.5s0.9-0.2,1.4-0.2h1.5v-0.8c0-0.5-0.2-0.9-0.5-1.2s-0.8-0.5-1.4-0.5c-0.3,0-0.6,0-0.8,0.1s-0.5,0.2-0.6,0.3
		s-0.3,0.3-0.4,0.5s-0.1,0.4-0.1,0.6l-0.8,0c0-0.3,0.1-0.5,0.2-0.8s0.3-0.5,0.6-0.7s0.5-0.4,0.9-0.5s0.7-0.2,1.2-0.2
		c0.4,0,0.8,0.1,1.1,0.2s0.6,0.3,0.9,0.5s0.4,0.5,0.6,0.8s0.2,0.7,0.2,1.1v3.6c0,0.1,0,0.3,0,0.4s0,0.3,0,0.4s0,0.2,0.1,0.4
		s0.1,0.2,0.1,0.3v0.1H82.5z M80,153.8c0.3,0,0.6,0,0.8-0.1s0.5-0.2,0.7-0.3s0.4-0.3,0.5-0.5s0.3-0.4,0.4-0.6v-1.6H81
		c-0.4,0-0.8,0-1.1,0.1s-0.6,0.2-0.8,0.3s-0.4,0.3-0.5,0.5s-0.2,0.4-0.2,0.7c0,0.2,0,0.4,0.1,0.6s0.2,0.3,0.3,0.5s0.3,0.2,0.5,0.3
		S79.7,153.8,80,153.8z"/>
	<path class="st2" d="M91.5,153.9c0.3,0,0.5,0,0.7-0.1s0.5-0.2,0.6-0.3s0.3-0.3,0.5-0.5s0.2-0.5,0.2-0.7h0.8c0,0.4-0.1,0.7-0.3,1
		s-0.4,0.6-0.6,0.8s-0.6,0.4-0.9,0.5s-0.7,0.2-1.1,0.2c-0.5,0-1-0.1-1.4-0.3s-0.7-0.5-1-0.8s-0.5-0.7-0.6-1.2s-0.2-0.9-0.2-1.5v-0.3
		c0-0.5,0.1-1,0.2-1.5s0.3-0.8,0.6-1.2s0.6-0.6,1-0.8s0.8-0.3,1.4-0.3c0.4,0,0.8,0.1,1.1,0.2s0.6,0.3,0.9,0.5s0.5,0.5,0.6,0.8
		s0.2,0.7,0.3,1.1h-0.8c0-0.3-0.1-0.6-0.2-0.8s-0.3-0.4-0.4-0.6s-0.4-0.3-0.6-0.4s-0.5-0.1-0.8-0.1c-0.4,0-0.8,0.1-1.1,0.2
		s-0.5,0.4-0.7,0.7s-0.3,0.6-0.4,1s-0.1,0.7-0.1,1.1v0.3c0,0.4,0,0.8,0.1,1.1s0.2,0.7,0.4,1s0.4,0.5,0.7,0.7S91.1,153.9,91.5,153.9z
		"/>
	<path class="st2" d="M100.6,154.4c0-0.1-0.1-0.3-0.1-0.5s0-0.4-0.1-0.6c-0.1,0.2-0.3,0.3-0.4,0.5s-0.4,0.3-0.6,0.4
		s-0.4,0.2-0.7,0.3s-0.5,0.1-0.8,0.1c-0.4,0-0.7-0.1-1-0.2s-0.5-0.3-0.8-0.4s-0.4-0.4-0.5-0.7s-0.2-0.5-0.2-0.8c0-0.4,0.1-0.7,0.2-1
		s0.4-0.5,0.7-0.7s0.6-0.4,1.1-0.5s0.9-0.2,1.4-0.2h1.5v-0.8c0-0.5-0.2-0.9-0.5-1.2s-0.8-0.5-1.4-0.5c-0.3,0-0.6,0-0.8,0.1
		s-0.5,0.2-0.6,0.3s-0.3,0.3-0.4,0.5s-0.1,0.4-0.1,0.6l-0.8,0c0-0.3,0.1-0.5,0.2-0.8s0.3-0.5,0.6-0.7s0.5-0.4,0.9-0.5
		s0.7-0.2,1.2-0.2c0.4,0,0.8,0.1,1.1,0.2s0.6,0.3,0.9,0.5s0.4,0.5,0.6,0.8s0.2,0.7,0.2,1.1v3.6c0,0.1,0,0.3,0,0.4s0,0.3,0,0.4
		s0,0.2,0.1,0.4s0.1,0.2,0.1,0.3v0.1H100.6z M98.1,153.8c0.3,0,0.6,0,0.8-0.1s0.5-0.2,0.7-0.3s0.4-0.3,0.5-0.5s0.3-0.4,0.4-0.6v-1.6
		h-1.4c-0.4,0-0.8,0-1.1,0.1s-0.6,0.2-0.8,0.3s-0.4,0.3-0.5,0.5s-0.2,0.4-0.2,0.7c0,0.2,0,0.4,0.1,0.6s0.2,0.3,0.3,0.5
		s0.3,0.2,0.5,0.3S97.8,153.8,98.1,153.8z M99.7,144h1l-1.6,1.9h-0.7L99.7,144z"/>
	<path class="st2" d="M106.2,153.9c0.3,0,0.5,0,0.7-0.1s0.5-0.2,0.6-0.3s0.3-0.3,0.5-0.5s0.2-0.5,0.2-0.7h0.8c0,0.4-0.1,0.7-0.3,1
		s-0.4,0.6-0.6,0.8s-0.6,0.4-0.9,0.5s-0.7,0.2-1.1,0.2c-0.5,0-1-0.1-1.4-0.3s-0.7-0.5-1-0.8s-0.5-0.7-0.6-1.2s-0.2-0.9-0.2-1.5v-0.3
		c0-0.5,0.1-1,0.2-1.5s0.3-0.8,0.6-1.2s0.6-0.6,1-0.8s0.8-0.3,1.4-0.3c0.4,0,0.8,0.1,1.1,0.2s0.6,0.3,0.9,0.5s0.5,0.5,0.6,0.8
		s0.2,0.7,0.3,1.1h-0.8c0-0.3-0.1-0.6-0.2-0.8s-0.3-0.4-0.4-0.6s-0.4-0.3-0.6-0.4s-0.5-0.1-0.8-0.1c-0.4,0-0.8,0.1-1.1,0.2
		s-0.5,0.4-0.7,0.7s-0.3,0.6-0.4,1s-0.1,0.7-0.1,1.1v0.3c0,0.4,0,0.8,0.1,1.1s0.2,0.7,0.4,1s0.4,0.5,0.7,0.7
		S105.8,153.9,106.2,153.9z"/>
	<path class="st2" d="M115.9,150.7l-0.9,0.9v2.8h-0.8v-10.5h0.8v6.7l0.8-0.8l2.8-2.8h1l-3.1,3.1l3.4,4.3h-1L115.9,150.7z"/>
	<path class="st2" d="M121.8,148.3c0.1-0.2,0.3-0.4,0.4-0.6s0.4-0.3,0.6-0.4s0.4-0.2,0.7-0.3s0.5-0.1,0.7-0.1c0.4,0,0.7,0.1,1,0.2
		s0.5,0.3,0.7,0.5s0.4,0.5,0.5,0.8s0.2,0.8,0.2,1.2v4.8h-0.8v-4.8c0-0.4,0-0.7-0.1-1s-0.2-0.5-0.3-0.6s-0.3-0.3-0.6-0.3
		s-0.5-0.1-0.7-0.1c-0.3,0-0.6,0-0.8,0.1s-0.4,0.2-0.6,0.4s-0.3,0.4-0.5,0.6s-0.2,0.4-0.3,0.7v5.1H121v-10.5h0.8V148.3z"/>
	<path class="st2" d="M128.2,150.6c0-0.5,0.1-1,0.2-1.5s0.4-0.8,0.7-1.2s0.6-0.6,1-0.8s0.9-0.3,1.4-0.3c0.5,0,1,0.1,1.4,0.3
		s0.8,0.4,1,0.8s0.5,0.7,0.7,1.2s0.2,1,0.2,1.5v0.2c0,0.5-0.1,1-0.2,1.5s-0.4,0.8-0.7,1.2s-0.6,0.6-1,0.8s-0.9,0.3-1.4,0.3
		s-1-0.1-1.4-0.3s-0.8-0.4-1-0.8s-0.5-0.7-0.7-1.2s-0.2-1-0.2-1.5V150.6z M129,150.8c0,0.4,0.1,0.8,0.2,1.2s0.3,0.7,0.5,1
		s0.5,0.5,0.8,0.7s0.7,0.2,1.1,0.2s0.8-0.1,1.1-0.2s0.6-0.4,0.8-0.7s0.4-0.6,0.5-1s0.2-0.8,0.2-1.2v-0.2c0-0.4-0.1-0.8-0.2-1.1
		s-0.3-0.7-0.5-1s-0.5-0.5-0.8-0.7s-0.7-0.2-1.1-0.2c-0.4,0-0.7,0.1-1.1,0.2s-0.6,0.4-0.8,0.7s-0.4,0.6-0.5,1s-0.2,0.7-0.2,1.1
		V150.8z"/>
	<path class="st2" d="M141.1,154.4c0-0.1-0.1-0.3-0.1-0.5s0-0.4-0.1-0.6c-0.1,0.2-0.3,0.3-0.4,0.5s-0.4,0.3-0.6,0.4
		s-0.4,0.2-0.7,0.3s-0.5,0.1-0.8,0.1c-0.4,0-0.7-0.1-1-0.2s-0.5-0.3-0.8-0.4s-0.4-0.4-0.5-0.7s-0.2-0.5-0.2-0.8c0-0.4,0.1-0.7,0.2-1
		s0.4-0.5,0.7-0.7s0.6-0.4,1.1-0.5s0.9-0.2,1.4-0.2h1.5v-0.8c0-0.5-0.2-0.9-0.5-1.2s-0.8-0.5-1.4-0.5c-0.3,0-0.6,0-0.8,0.1
		s-0.5,0.2-0.6,0.3s-0.3,0.3-0.4,0.5s-0.1,0.4-0.1,0.6l-0.8,0c0-0.3,0.1-0.5,0.2-0.8s0.3-0.5,0.6-0.7s0.5-0.4,0.9-0.5
		s0.7-0.2,1.2-0.2c0.4,0,0.8,0.1,1.1,0.2s0.6,0.3,0.9,0.5s0.4,0.5,0.6,0.8s0.2,0.7,0.2,1.1v3.6c0,0.1,0,0.3,0,0.4s0,0.3,0,0.4
		s0,0.2,0.1,0.4s0.1,0.2,0.1,0.3v0.1H141.1z M138.6,153.8c0.3,0,0.6,0,0.8-0.1s0.5-0.2,0.7-0.3s0.4-0.3,0.5-0.5s0.3-0.4,0.4-0.6
		v-1.6h-1.4c-0.4,0-0.8,0-1.1,0.1s-0.6,0.2-0.8,0.3s-0.4,0.3-0.5,0.5s-0.2,0.4-0.2,0.7c0,0.2,0,0.4,0.1,0.6s0.2,0.3,0.3,0.5
		s0.3,0.2,0.5,0.3S138.3,153.8,138.6,153.8z M140.2,144h1l-1.6,1.9h-0.7L140.2,144z"/>
	<path class="st2" d="M144.8,147l0,1.3c0.1-0.2,0.3-0.4,0.4-0.6s0.4-0.3,0.6-0.4s0.4-0.2,0.7-0.3s0.5-0.1,0.8-0.1
		c0.4,0,0.7,0.1,1,0.2s0.5,0.3,0.7,0.5s0.4,0.5,0.5,0.8s0.2,0.8,0.2,1.2v4.8h-0.8v-4.8c0-0.4,0-0.7-0.1-1s-0.2-0.5-0.3-0.6
		s-0.3-0.3-0.6-0.3s-0.5-0.1-0.7-0.1c-0.3,0-0.6,0-0.8,0.1s-0.4,0.2-0.6,0.4s-0.3,0.4-0.5,0.6s-0.2,0.4-0.3,0.7v5.1H144V147H144.8z"
		/>
	<path class="st2" d="M151.3,150.6c0-0.6,0.1-1.1,0.2-1.6s0.3-0.9,0.6-1.2s0.5-0.6,0.9-0.8s0.8-0.3,1.2-0.3c0.5,0,1,0.1,1.4,0.3
		s0.7,0.5,0.9,0.9l0-1.1h0.8v7.3c0,0.5-0.1,0.9-0.2,1.3s-0.3,0.7-0.6,1s-0.6,0.5-0.9,0.6s-0.8,0.2-1.2,0.2c-0.2,0-0.5,0-0.7-0.1
		s-0.5-0.1-0.7-0.2s-0.4-0.2-0.6-0.4s-0.4-0.3-0.5-0.6l0.5-0.5c0.3,0.4,0.6,0.6,1,0.8s0.7,0.3,1.1,0.3c0.4,0,0.7-0.1,0.9-0.2
		s0.5-0.3,0.7-0.5s0.3-0.4,0.4-0.7s0.1-0.6,0.1-1v-0.9c-0.2,0.3-0.6,0.6-0.9,0.8s-0.8,0.3-1.4,0.3c-0.4,0-0.8-0.1-1.2-0.3
		s-0.6-0.4-0.9-0.8s-0.4-0.7-0.6-1.2s-0.2-1-0.2-1.5V150.6z M152.2,150.8c0,0.4,0,0.8,0.1,1.2s0.2,0.7,0.4,1s0.4,0.5,0.7,0.6
		s0.6,0.2,1,0.2c0.3,0,0.5,0,0.8-0.1s0.4-0.2,0.6-0.3s0.3-0.3,0.5-0.4s0.2-0.3,0.3-0.5v-3.4c-0.1-0.2-0.2-0.4-0.3-0.6
		s-0.3-0.3-0.4-0.5s-0.4-0.2-0.6-0.3s-0.5-0.1-0.8-0.1c-0.4,0-0.7,0.1-1,0.2s-0.5,0.4-0.7,0.6s-0.3,0.6-0.4,1s-0.1,0.8-0.1,1.2
		V150.8z"/>
	<path class="st2" d="M165.6,153.9c0.3,0,0.5,0,0.7-0.1s0.5-0.2,0.6-0.3s0.3-0.3,0.5-0.5s0.2-0.5,0.2-0.7h0.8c0,0.4-0.1,0.7-0.3,1
		s-0.4,0.6-0.6,0.8s-0.6,0.4-0.9,0.5s-0.7,0.2-1.1,0.2c-0.5,0-1-0.1-1.4-0.3s-0.7-0.5-1-0.8s-0.5-0.7-0.6-1.2s-0.2-0.9-0.2-1.5v-0.3
		c0-0.5,0.1-1,0.2-1.5s0.3-0.8,0.6-1.2s0.6-0.6,1-0.8s0.8-0.3,1.4-0.3c0.4,0,0.8,0.1,1.1,0.2s0.6,0.3,0.9,0.5s0.5,0.5,0.6,0.8
		s0.2,0.7,0.3,1.1h-0.8c0-0.3-0.1-0.6-0.2-0.8s-0.3-0.4-0.4-0.6s-0.4-0.3-0.6-0.4s-0.5-0.1-0.8-0.1c-0.4,0-0.8,0.1-1.1,0.2
		s-0.5,0.4-0.7,0.7s-0.3,0.6-0.4,1s-0.1,0.7-0.1,1.1v0.3c0,0.4,0,0.8,0.1,1.1s0.2,0.7,0.4,1s0.4,0.5,0.7,0.7
		S165.1,153.9,165.6,153.9z"/>
	<path class="st2" d="M170.9,148.3c0.1-0.2,0.3-0.4,0.4-0.6s0.4-0.3,0.6-0.4s0.4-0.2,0.7-0.3s0.5-0.1,0.7-0.1c0.4,0,0.7,0.1,1,0.2
		s0.5,0.3,0.7,0.5s0.4,0.5,0.5,0.8s0.2,0.8,0.2,1.2v4.8h-0.8v-4.8c0-0.4,0-0.7-0.1-1s-0.2-0.5-0.3-0.6s-0.3-0.3-0.6-0.3
		s-0.5-0.1-0.7-0.1c-0.3,0-0.6,0-0.8,0.1s-0.4,0.2-0.6,0.4s-0.3,0.4-0.5,0.6s-0.2,0.4-0.3,0.7v5.1H170v-10.5h0.8V148.3z"/>
	<path class="st2" d="M182.4,154.4c0-0.1-0.1-0.3-0.1-0.5s0-0.4-0.1-0.6c-0.1,0.2-0.3,0.3-0.4,0.5s-0.4,0.3-0.6,0.4
		s-0.4,0.2-0.7,0.3s-0.5,0.1-0.8,0.1c-0.4,0-0.7-0.1-1-0.2s-0.5-0.3-0.8-0.4s-0.4-0.4-0.5-0.7s-0.2-0.5-0.2-0.8c0-0.4,0.1-0.7,0.2-1
		s0.4-0.5,0.7-0.7s0.6-0.4,1.1-0.5s0.9-0.2,1.4-0.2h1.5v-0.8c0-0.5-0.2-0.9-0.5-1.2s-0.8-0.5-1.4-0.5c-0.3,0-0.6,0-0.8,0.1
		s-0.5,0.2-0.6,0.3s-0.3,0.3-0.4,0.5s-0.1,0.4-0.1,0.6l-0.8,0c0-0.3,0.1-0.5,0.2-0.8s0.3-0.5,0.6-0.7s0.5-0.4,0.9-0.5
		s0.7-0.2,1.2-0.2c0.4,0,0.8,0.1,1.1,0.2s0.6,0.3,0.9,0.5s0.4,0.5,0.6,0.8s0.2,0.7,0.2,1.1v3.6c0,0.1,0,0.3,0,0.4s0,0.3,0,0.4
		s0,0.2,0.1,0.4s0.1,0.2,0.1,0.3v0.1H182.4z M179.8,153.8c0.3,0,0.6,0,0.8-0.1s0.5-0.2,0.7-0.3s0.4-0.3,0.5-0.5s0.3-0.4,0.4-0.6
		v-1.6h-1.4c-0.4,0-0.8,0-1.1,0.1s-0.6,0.2-0.8,0.3s-0.4,0.3-0.5,0.5s-0.2,0.4-0.2,0.7c0,0.2,0,0.4,0.1,0.6s0.2,0.3,0.3,0.5
		s0.3,0.2,0.5,0.3S179.6,153.8,179.8,153.8z M180.2,144.3h0.8l1.8,1.7h-1l-1.3-1.2l-1.3,1.2h-1L180.2,144.3z M183.4,143.4h0.9
		l-1.2,1.6h-0.7L183.4,143.4z"/>
	<path class="st2" d="M186.5,145.1v1.9h1.5v0.7h-1.5v4.9c0,0.3,0,0.5,0.1,0.6s0.1,0.3,0.2,0.4s0.2,0.1,0.3,0.2s0.2,0,0.4,0
		c0.1,0,0.2,0,0.4,0s0.2,0,0.3,0l0,0.7c-0.1,0-0.2,0.1-0.4,0.1s-0.3,0-0.5,0c-0.2,0-0.4,0-0.6-0.1s-0.4-0.2-0.5-0.3
		s-0.3-0.3-0.3-0.6s-0.1-0.6-0.1-0.9v-4.9h-1.4V147h1.4v-1.9H186.5z"/>
	<path class="st2" d="M86.7,168.1c-0.1,0.5-0.2,1-0.4,1.4s-0.4,0.7-0.7,1s-0.7,0.5-1.1,0.6s-0.9,0.2-1.5,0.2c-0.6,0-1.1-0.1-1.5-0.3
		s-0.9-0.5-1.2-0.9s-0.6-0.9-0.8-1.4s-0.3-1.2-0.3-1.8v-1.3c0-0.7,0.1-1.3,0.3-1.8s0.4-1,0.8-1.4s0.7-0.7,1.2-0.9s1-0.3,1.6-0.3
		c0.5,0,1,0.1,1.4,0.2s0.8,0.4,1.1,0.6s0.5,0.6,0.7,1s0.3,0.9,0.4,1.4h-0.8c-0.1-0.4-0.1-0.8-0.3-1.1s-0.3-0.6-0.5-0.8
		s-0.5-0.4-0.8-0.5s-0.7-0.2-1.1-0.2c-0.5,0-0.9,0.1-1.2,0.3s-0.7,0.4-0.9,0.8s-0.5,0.7-0.6,1.2s-0.2,1-0.2,1.5v1.3
		c0,0.5,0.1,1.1,0.2,1.5s0.3,0.9,0.6,1.2s0.5,0.6,0.9,0.8s0.8,0.3,1.2,0.3c0.9,0,1.5-0.2,2-0.6s0.7-1.1,0.8-1.9H86.7z"/>
	<path class="st2" d="M93.2,171.2c0-0.1-0.1-0.3-0.1-0.5s0-0.4-0.1-0.6c-0.1,0.2-0.3,0.3-0.4,0.5s-0.4,0.3-0.6,0.4s-0.4,0.2-0.7,0.3
		s-0.5,0.1-0.8,0.1c-0.4,0-0.7-0.1-1-0.2s-0.5-0.3-0.8-0.4s-0.4-0.4-0.5-0.7s-0.2-0.5-0.2-0.8c0-0.4,0.1-0.7,0.2-1s0.4-0.5,0.7-0.7
		s0.6-0.4,1.1-0.5s0.9-0.2,1.4-0.2h1.5v-0.8c0-0.5-0.2-0.9-0.5-1.2s-0.8-0.5-1.4-0.5c-0.3,0-0.6,0-0.8,0.1s-0.5,0.2-0.6,0.3
		s-0.3,0.3-0.4,0.5s-0.1,0.4-0.1,0.6l-0.8,0c0-0.3,0.1-0.5,0.2-0.8s0.3-0.5,0.6-0.7s0.5-0.4,0.9-0.5s0.7-0.2,1.2-0.2
		c0.4,0,0.8,0.1,1.1,0.2s0.6,0.3,0.9,0.5s0.4,0.5,0.6,0.8s0.2,0.7,0.2,1.1v3.6c0,0.1,0,0.3,0,0.4s0,0.3,0,0.4s0,0.2,0.1,0.4
		s0.1,0.2,0.1,0.3v0.1H93.2z M90.7,170.6c0.3,0,0.6,0,0.8-0.1s0.5-0.2,0.7-0.3s0.4-0.3,0.5-0.5s0.3-0.4,0.4-0.6v-1.6h-1.4
		c-0.4,0-0.8,0-1.1,0.1s-0.6,0.2-0.8,0.3s-0.4,0.3-0.5,0.5s-0.2,0.4-0.2,0.7c0,0.2,0,0.4,0.1,0.6s0.2,0.3,0.3,0.5s0.3,0.2,0.5,0.3
		S90.4,170.6,90.7,170.6z"/>
	<path class="st2" d="M96.8,170.9c0,0.2,0,0.4-0.1,0.6s-0.1,0.4-0.2,0.6s-0.2,0.4-0.3,0.5s-0.3,0.3-0.4,0.5l-0.5-0.4
		c0.2-0.3,0.4-0.6,0.5-0.9s0.2-0.6,0.2-1v-1h0.8V170.9z"/>
	<path class="st2" d="M103.5,161.3l3.7,8.8l3.7-8.8h1.1v10h-0.8v-4.3l0.1-4.4l-3.7,8.8h-0.6l-3.7-8.7l0.1,4.4v4.3h-0.8v-10H103.5z"
		/>
	<path class="st2" d="M113.9,167.4c0-0.6,0.1-1.1,0.2-1.6s0.3-0.9,0.6-1.2s0.5-0.6,0.9-0.8s0.8-0.3,1.2-0.3c0.5,0,1,0.1,1.4,0.3
		s0.7,0.5,0.9,0.9l0-1.1h0.8v7.3c0,0.5-0.1,0.9-0.2,1.3s-0.3,0.7-0.6,1s-0.6,0.5-0.9,0.6s-0.8,0.2-1.2,0.2c-0.2,0-0.5,0-0.7-0.1
		s-0.5-0.1-0.7-0.2s-0.4-0.2-0.6-0.4s-0.4-0.3-0.5-0.6l0.5-0.5c0.3,0.4,0.6,0.6,1,0.8s0.7,0.3,1.1,0.3c0.4,0,0.7-0.1,0.9-0.2
		s0.5-0.3,0.7-0.5s0.3-0.4,0.4-0.7s0.1-0.6,0.1-1v-0.9c-0.2,0.3-0.6,0.6-0.9,0.8s-0.8,0.3-1.4,0.3c-0.4,0-0.8-0.1-1.2-0.3
		s-0.6-0.4-0.9-0.8s-0.4-0.7-0.6-1.2s-0.2-1-0.2-1.5V167.4z M114.8,167.6c0,0.4,0,0.8,0.1,1.2s0.2,0.7,0.4,1s0.4,0.5,0.7,0.6
		s0.6,0.2,1,0.2c0.3,0,0.5,0,0.8-0.1s0.4-0.2,0.6-0.3s0.3-0.3,0.5-0.4s0.2-0.3,0.3-0.5v-3.4c-0.1-0.2-0.2-0.4-0.3-0.6
		s-0.3-0.3-0.4-0.5s-0.4-0.2-0.6-0.3s-0.5-0.1-0.8-0.1c-0.4,0-0.7,0.1-1,0.2s-0.5,0.4-0.7,0.6s-0.3,0.6-0.4,1s-0.1,0.8-0.1,1.2
		V167.6z"/>
	<path class="st2" d="M122.8,170.9c0,0.2,0,0.4-0.1,0.6s-0.1,0.4-0.2,0.6s-0.2,0.4-0.3,0.5s-0.3,0.3-0.4,0.5l-0.5-0.4
		c0.2-0.3,0.4-0.6,0.5-0.9s0.2-0.6,0.2-1v-1h0.8V170.9z"/>
	<path class="st2" d="M135.7,171.2h-0.8l-5.7-8.5v8.5h-0.8v-10h0.8l5.7,8.5v-8.5h0.8V171.2z"/>
	<path class="st2" d="M142.7,171.2c0-0.1-0.1-0.3-0.1-0.5s0-0.4-0.1-0.6c-0.1,0.2-0.3,0.3-0.4,0.5s-0.4,0.3-0.6,0.4
		s-0.4,0.2-0.7,0.3s-0.5,0.1-0.8,0.1c-0.4,0-0.7-0.1-1-0.2s-0.5-0.3-0.8-0.4s-0.4-0.4-0.5-0.7s-0.2-0.5-0.2-0.8c0-0.4,0.1-0.7,0.2-1
		s0.4-0.5,0.7-0.7s0.6-0.4,1.1-0.5s0.9-0.2,1.4-0.2h1.5v-0.8c0-0.5-0.2-0.9-0.5-1.2s-0.8-0.5-1.4-0.5c-0.3,0-0.6,0-0.8,0.1
		s-0.5,0.2-0.6,0.3s-0.3,0.3-0.4,0.5s-0.1,0.4-0.1,0.6l-0.8,0c0-0.3,0.1-0.5,0.2-0.8s0.3-0.5,0.6-0.7s0.5-0.4,0.9-0.5
		s0.7-0.2,1.2-0.2c0.4,0,0.8,0.1,1.1,0.2s0.6,0.3,0.9,0.5s0.4,0.5,0.6,0.8s0.2,0.7,0.2,1.1v3.6c0,0.1,0,0.3,0,0.4s0,0.3,0,0.4
		s0,0.2,0.1,0.4s0.1,0.2,0.1,0.3v0.1H142.7z M140.1,170.6c0.3,0,0.6,0,0.8-0.1s0.5-0.2,0.7-0.3s0.4-0.3,0.5-0.5s0.3-0.4,0.4-0.6
		v-1.6h-1.4c-0.4,0-0.8,0-1.1,0.1s-0.6,0.2-0.8,0.3s-0.4,0.3-0.5,0.5s-0.2,0.4-0.2,0.7c0,0.2,0,0.4,0.1,0.6s0.2,0.3,0.3,0.5
		s0.3,0.2,0.5,0.3S139.9,170.6,140.1,170.6z"/>
	<path class="st2" d="M146.3,170.9c0,0.2,0,0.4-0.1,0.6s-0.1,0.4-0.2,0.6s-0.2,0.4-0.3,0.5s-0.3,0.3-0.4,0.5l-0.5-0.4
		c0.2-0.3,0.4-0.6,0.5-0.9s0.2-0.6,0.2-1v-1h0.8V170.9z"/>
	<path class="st2" d="M154.1,166.3l-1.4,1.4v3.6h-0.8v-10h0.8v5.4l1.4-1.4l3.7-4h1.1l-4.2,4.4l4.5,5.5h-1L154.1,166.3z"/>
	<path class="st2" d="M161.2,170.9c0,0.2,0,0.4-0.1,0.6s-0.1,0.4-0.2,0.6s-0.2,0.4-0.3,0.5s-0.3,0.3-0.4,0.5l-0.5-0.4
		c0.2-0.3,0.4-0.6,0.5-0.9s0.2-0.6,0.2-1v-1h0.8V170.9z"/>
	<path class="st2" d="M55.4,188h-0.8v-4.8h-5.7v4.8H48v-10h0.8v4.5h5.7v-4.5h0.8V188z"/>
	<path class="st2" d="M64.9,184.9c-0.1,0.5-0.2,1-0.4,1.4s-0.4,0.7-0.7,1s-0.7,0.5-1.1,0.6s-0.9,0.2-1.5,0.2c-0.6,0-1.1-0.1-1.5-0.3
		s-0.9-0.5-1.2-0.9s-0.6-0.9-0.8-1.4s-0.3-1.2-0.3-1.8v-1.3c0-0.7,0.1-1.3,0.3-1.8s0.4-1,0.8-1.4s0.7-0.7,1.2-0.9s1-0.3,1.6-0.3
		c0.5,0,1,0.1,1.4,0.2s0.8,0.4,1.1,0.6s0.5,0.6,0.7,1s0.3,0.9,0.4,1.4h-0.8c-0.1-0.4-0.1-0.8-0.3-1.1s-0.3-0.6-0.5-0.8
		s-0.5-0.4-0.8-0.5s-0.7-0.2-1.1-0.2c-0.5,0-0.9,0.1-1.2,0.3s-0.7,0.4-0.9,0.8s-0.5,0.7-0.6,1.2s-0.2,1-0.2,1.5v1.3
		c0,0.5,0.1,1.1,0.2,1.5s0.3,0.9,0.6,1.2s0.5,0.6,0.9,0.8s0.8,0.3,1.2,0.3c0.9,0,1.5-0.2,2-0.6s0.7-1.1,0.8-1.9H64.9z"/>
	<path class="st2" d="M74.3,183.6c0,0.7-0.1,1.3-0.3,1.9s-0.4,1-0.8,1.4s-0.7,0.7-1.2,0.9s-1,0.3-1.6,0.3c-0.6,0-1.1-0.1-1.6-0.3
		s-0.9-0.5-1.2-0.9s-0.6-0.9-0.8-1.4s-0.3-1.2-0.3-1.9v-1.1c0-0.7,0.1-1.3,0.3-1.9s0.4-1,0.8-1.4s0.7-0.7,1.2-0.9s1-0.3,1.6-0.3
		c0.6,0,1.1,0.1,1.6,0.3s0.9,0.5,1.2,0.9s0.6,0.9,0.8,1.4s0.3,1.2,0.3,1.9V183.6z M73.5,182.5c0-0.6-0.1-1.1-0.2-1.6
		s-0.3-0.9-0.6-1.2s-0.6-0.6-1-0.8s-0.8-0.3-1.3-0.3c-0.5,0-0.9,0.1-1.3,0.3s-0.7,0.4-1,0.8s-0.5,0.7-0.6,1.2s-0.2,1-0.2,1.6v1.1
		c0,0.6,0.1,1.1,0.2,1.6s0.3,0.9,0.6,1.2s0.6,0.6,1,0.8s0.8,0.3,1.3,0.3c0.5,0,0.9-0.1,1.3-0.3s0.7-0.4,1-0.8s0.5-0.7,0.6-1.2
		s0.2-1,0.2-1.6V182.5z"/>
	<path class="st2" d="M78,182.6h0.8c0.4,0,0.7-0.1,1-0.2s0.5-0.2,0.7-0.4s0.3-0.4,0.4-0.6s0.1-0.5,0.1-0.7c0-0.3,0-0.6-0.1-0.8
		s-0.2-0.5-0.4-0.6s-0.4-0.3-0.6-0.4s-0.6-0.2-0.9-0.2c-0.3,0-0.6,0-0.9,0.1s-0.5,0.2-0.7,0.4s-0.3,0.4-0.5,0.6s-0.2,0.5-0.2,0.9H76
		c0-0.4,0.1-0.8,0.2-1.1s0.4-0.6,0.6-0.9s0.6-0.4,1-0.6s0.8-0.2,1.2-0.2c0.4,0,0.8,0.1,1.2,0.2s0.7,0.3,0.9,0.5s0.4,0.5,0.6,0.9
		s0.2,0.7,0.2,1.2c0,0.2,0,0.4-0.1,0.7s-0.2,0.4-0.3,0.6s-0.3,0.4-0.5,0.5s-0.5,0.3-0.7,0.4c0.3,0.1,0.6,0.2,0.8,0.4
		s0.4,0.3,0.6,0.6s0.3,0.4,0.3,0.7s0.1,0.5,0.1,0.8c0,0.5-0.1,0.9-0.2,1.2s-0.4,0.6-0.6,0.9s-0.6,0.4-1,0.6s-0.8,0.2-1.2,0.2
		c-0.4,0-0.8-0.1-1.2-0.2s-0.7-0.3-1-0.5s-0.5-0.5-0.7-0.9s-0.3-0.8-0.3-1.2h0.8c0,0.3,0.1,0.6,0.2,0.9s0.3,0.5,0.5,0.7
		s0.5,0.3,0.7,0.4s0.6,0.2,1,0.2c0.7,0,1.3-0.2,1.7-0.5s0.6-0.9,0.6-1.6c0-0.4-0.1-0.7-0.2-0.9s-0.3-0.5-0.5-0.6s-0.5-0.3-0.8-0.4
		s-0.6-0.1-1-0.1H78V182.6z"/>
	<path class="st2" d="M86.6,184h-3.3v-0.7h3.3V184z"/>
	<path class="st2" d="M91.3,184c0-0.6,0-1.2,0.1-1.7s0.2-1.1,0.4-1.5s0.3-0.9,0.5-1.3s0.4-0.8,0.6-1.1s0.5-0.6,0.7-0.9
		s0.5-0.4,0.7-0.6l0.2,0.6c-0.3,0.2-0.6,0.5-0.9,0.9s-0.6,0.9-0.8,1.5s-0.4,1.2-0.6,1.9s-0.2,1.5-0.2,2.3v0.1c0,0.8,0.1,1.6,0.2,2.3
		s0.3,1.3,0.6,1.9s0.5,1.1,0.8,1.5s0.6,0.7,0.9,1l-0.2,0.5c-0.2-0.1-0.5-0.3-0.7-0.6s-0.5-0.5-0.7-0.8s-0.4-0.7-0.6-1.1
		s-0.4-0.9-0.5-1.3s-0.3-1-0.4-1.5s-0.1-1.1-0.1-1.7V184z"/>
	<path class="st2" d="M102.8,178.8h-3.4v9.2h-0.8v-9.2h-3.4v-0.7h7.7V178.8z"/>
	<path class="st2" d="M104.5,188v-10h2.8c0.6,0,1.2,0.1,1.7,0.3s1,0.5,1.3,0.9s0.7,0.9,0.9,1.4s0.3,1.2,0.3,1.9v0.9
		c0,0.7-0.1,1.3-0.3,1.9s-0.5,1-0.9,1.4s-0.8,0.7-1.4,0.9s-1.1,0.3-1.8,0.3H104.5z M105.3,178.8v8.5h1.9c0.5,0,1-0.1,1.4-0.3
		s0.8-0.4,1.1-0.8s0.5-0.7,0.7-1.2s0.2-1,0.2-1.5v-0.9c0-0.6-0.1-1.1-0.2-1.6s-0.4-0.9-0.7-1.2s-0.7-0.6-1.1-0.8s-0.9-0.3-1.4-0.3
		H105.3z"/>
	<path class="st2" d="M119.3,185.6c0-0.3,0-0.5-0.1-0.7s-0.2-0.4-0.5-0.6s-0.5-0.3-0.8-0.5s-0.8-0.3-1.3-0.4c-0.5-0.1-1-0.3-1.4-0.5
		s-0.7-0.4-1-0.6s-0.5-0.5-0.6-0.8s-0.2-0.6-0.2-1c0-0.4,0.1-0.7,0.2-1s0.4-0.6,0.7-0.8s0.6-0.4,1.1-0.5s0.9-0.2,1.3-0.2
		c0.5,0,1,0.1,1.4,0.2s0.8,0.4,1.1,0.6s0.5,0.6,0.7,0.9s0.2,0.7,0.2,1.2h-0.8c0-0.3-0.1-0.6-0.2-0.9s-0.3-0.5-0.5-0.7
		s-0.5-0.4-0.8-0.5s-0.7-0.2-1.1-0.2s-0.8,0-1.1,0.1s-0.6,0.2-0.8,0.4s-0.4,0.4-0.5,0.6s-0.2,0.5-0.2,0.7c0,0.2,0,0.5,0.1,0.7
		s0.2,0.4,0.4,0.6s0.5,0.3,0.8,0.5s0.8,0.3,1.3,0.4c0.5,0.1,1,0.3,1.4,0.5s0.8,0.4,1,0.6s0.5,0.5,0.6,0.8s0.2,0.7,0.2,1.1
		c0,0.4-0.1,0.8-0.3,1.1s-0.4,0.6-0.7,0.8s-0.7,0.4-1.1,0.5s-0.9,0.2-1.4,0.2c-0.3,0-0.6,0-0.9-0.1s-0.6-0.1-0.9-0.2
		s-0.5-0.2-0.8-0.4s-0.4-0.3-0.6-0.6s-0.3-0.5-0.4-0.8s-0.2-0.6-0.2-1h0.8c0,0.4,0.1,0.8,0.3,1.1s0.4,0.5,0.7,0.7s0.6,0.3,0.9,0.4
		s0.7,0.1,1,0.1c0.4,0,0.7,0,1.1-0.1s0.6-0.2,0.8-0.4s0.4-0.4,0.5-0.6S119.3,185.9,119.3,185.6z"/>
	<path class="st2" d="M132.6,182.8c0,0.3,0,0.6-0.1,0.9s-0.2,0.5-0.4,0.7s-0.4,0.4-0.6,0.5s-0.5,0.2-0.8,0.2c-0.2,0-0.4,0-0.6-0.1
		s-0.3-0.1-0.5-0.2s-0.3-0.2-0.5-0.3s-0.3-0.3-0.5-0.4c-0.1-0.1-0.3-0.2-0.4-0.3s-0.2-0.2-0.4-0.2s-0.2-0.1-0.4-0.1s-0.2,0-0.4,0
		c-0.4,0-0.7,0.1-0.9,0.4s-0.3,0.7-0.3,1.2l-0.7,0c0-0.3,0-0.6,0.1-0.9s0.2-0.5,0.4-0.7s0.4-0.4,0.6-0.5s0.5-0.2,0.9-0.2
		c0.2,0,0.4,0,0.6,0.1s0.3,0.1,0.5,0.2s0.3,0.2,0.5,0.3s0.3,0.3,0.5,0.4c0.1,0.1,0.3,0.3,0.4,0.4s0.2,0.2,0.4,0.2s0.2,0.1,0.3,0.1
		s0.2,0,0.4,0c0.2,0,0.4,0,0.6-0.1s0.3-0.2,0.4-0.3s0.2-0.3,0.3-0.5s0.1-0.4,0.1-0.7H132.6z"/>
	<path class="st2" d="M141.8,188H141v-9l-2.7,1v-0.8l3.4-1.3h0.1V188z"/>
	<path class="st2" d="M151.6,180.6c0,0.3,0,0.5-0.1,0.7s-0.2,0.4-0.3,0.6s-0.3,0.4-0.5,0.5s-0.4,0.3-0.7,0.4
		c0.3,0.1,0.5,0.2,0.8,0.4s0.4,0.3,0.6,0.6s0.3,0.4,0.4,0.7s0.1,0.5,0.1,0.8c0,0.5-0.1,0.9-0.2,1.2s-0.4,0.6-0.7,0.9s-0.6,0.4-1,0.5
		s-0.8,0.2-1.2,0.2c-0.5,0-0.9-0.1-1.3-0.2s-0.7-0.3-1-0.5s-0.5-0.5-0.7-0.9s-0.2-0.7-0.2-1.2c0-0.3,0-0.6,0.1-0.8s0.2-0.5,0.4-0.7
		s0.4-0.4,0.6-0.6s0.5-0.3,0.8-0.4c-0.2-0.1-0.5-0.2-0.7-0.4s-0.4-0.3-0.5-0.5s-0.2-0.4-0.3-0.6s-0.1-0.5-0.1-0.7
		c0-0.4,0.1-0.8,0.2-1.2s0.3-0.6,0.6-0.8s0.6-0.4,0.9-0.5s0.7-0.2,1.2-0.2c0.4,0,0.8,0.1,1.1,0.2s0.7,0.3,0.9,0.5s0.5,0.5,0.6,0.8
		S151.6,180.2,151.6,180.6z M151,185.4c0-0.3-0.1-0.6-0.2-0.9s-0.3-0.5-0.5-0.7s-0.5-0.3-0.7-0.4s-0.6-0.2-0.9-0.2
		c-0.3,0-0.7,0.1-0.9,0.2s-0.5,0.2-0.7,0.4s-0.4,0.4-0.5,0.7s-0.2,0.6-0.2,0.9c0,0.3,0.1,0.6,0.2,0.9s0.3,0.5,0.5,0.7
		s0.5,0.3,0.7,0.4s0.6,0.1,1,0.1c0.3,0,0.7,0,0.9-0.1s0.5-0.2,0.7-0.4s0.4-0.4,0.5-0.7S151,185.7,151,185.4z M150.8,180.6
		c0-0.3-0.1-0.6-0.2-0.8s-0.3-0.5-0.4-0.6s-0.4-0.3-0.7-0.4s-0.5-0.1-0.8-0.1s-0.6,0-0.8,0.1s-0.5,0.2-0.7,0.4s-0.3,0.4-0.4,0.6
		s-0.2,0.5-0.2,0.8c0,0.3,0.1,0.6,0.2,0.8s0.2,0.4,0.4,0.6s0.4,0.3,0.7,0.4s0.5,0.1,0.8,0.1c0.3,0,0.6,0,0.8-0.1s0.5-0.2,0.7-0.4
		s0.3-0.4,0.4-0.6S150.8,180.9,150.8,180.6z"/>
	<path class="st2" d="M159.5,183.9c0,0.7-0.1,1.4-0.2,1.9s-0.3,1-0.6,1.3s-0.6,0.6-1,0.8s-0.8,0.3-1.3,0.3c-0.5,0-0.9-0.1-1.3-0.3
		s-0.7-0.4-1-0.8s-0.5-0.8-0.6-1.3s-0.2-1.2-0.2-1.9v-1.7c0-0.7,0.1-1.4,0.2-1.9s0.3-1,0.6-1.3s0.6-0.6,1-0.8s0.8-0.3,1.3-0.3
		s0.9,0.1,1.3,0.3s0.7,0.4,1,0.8s0.5,0.8,0.6,1.3s0.2,1.2,0.2,1.9V183.9z M158.7,182.1c0-1.1-0.2-2-0.6-2.6s-0.9-0.9-1.7-0.9
		c-0.7,0-1.3,0.3-1.7,0.9s-0.6,1.4-0.6,2.6v1.9c0,0.6,0,1.1,0.1,1.5s0.2,0.8,0.4,1.1s0.4,0.5,0.7,0.7s0.6,0.2,1,0.2
		c0.4,0,0.7-0.1,1-0.2s0.5-0.4,0.7-0.7s0.3-0.7,0.4-1.1s0.1-0.9,0.1-1.5V182.1z"/>
	<path class="st2" d="M162.1,180.6l0,1.2c0.1-0.2,0.3-0.4,0.4-0.6s0.3-0.3,0.5-0.4s0.4-0.2,0.7-0.3s0.5-0.1,0.8-0.1
		c0.5,0,1,0.1,1.4,0.3s0.7,0.6,0.8,1.1c0.1-0.2,0.3-0.4,0.4-0.6s0.4-0.3,0.6-0.5s0.4-0.2,0.7-0.3s0.5-0.1,0.8-0.1
		c0.4,0,0.7,0.1,1,0.2s0.6,0.3,0.8,0.5s0.4,0.5,0.5,0.8s0.2,0.8,0.2,1.2v4.8h-0.8v-4.8c0-0.4,0-0.7-0.1-1s-0.2-0.5-0.4-0.6
		s-0.3-0.3-0.6-0.3s-0.5-0.1-0.7-0.1c-0.3,0-0.6,0.1-0.9,0.2s-0.5,0.3-0.7,0.5s-0.3,0.4-0.4,0.6s-0.2,0.4-0.2,0.7v4.9h-0.8v-4.9
		c0-0.4,0-0.7-0.1-0.9s-0.2-0.4-0.4-0.6s-0.3-0.3-0.6-0.3s-0.5-0.1-0.7-0.1c-0.3,0-0.6,0-0.8,0.1s-0.4,0.2-0.6,0.4s-0.3,0.4-0.4,0.6
		s-0.2,0.4-0.3,0.6v5.1h-0.8v-7.4H162.1z"/>
	<path class="st2" d="M173.5,184.3c0-0.6,0.1-1.1,0.2-1.6s0.3-0.9,0.6-1.2s0.5-0.6,0.9-0.8s0.8-0.3,1.2-0.3c0.5,0,1,0.1,1.4,0.3
		s0.7,0.5,0.9,0.9l0-1.1h0.8v7.3c0,0.5-0.1,0.9-0.2,1.3s-0.3,0.7-0.6,1s-0.6,0.5-0.9,0.6s-0.8,0.2-1.2,0.2c-0.2,0-0.5,0-0.7-0.1
		s-0.5-0.1-0.7-0.2s-0.4-0.2-0.6-0.4s-0.4-0.3-0.5-0.6l0.5-0.5c0.3,0.4,0.6,0.6,1,0.8s0.7,0.3,1.1,0.3c0.4,0,0.7-0.1,0.9-0.2
		s0.5-0.3,0.7-0.5s0.3-0.4,0.4-0.7s0.1-0.6,0.1-1v-0.9c-0.2,0.3-0.6,0.6-0.9,0.8s-0.8,0.3-1.4,0.3c-0.4,0-0.8-0.1-1.2-0.3
		s-0.6-0.4-0.9-0.8s-0.4-0.7-0.6-1.2s-0.2-1-0.2-1.5V184.3z M174.3,184.4c0,0.4,0,0.8,0.1,1.2s0.2,0.7,0.4,1s0.4,0.5,0.7,0.6
		s0.6,0.2,1,0.2c0.3,0,0.5,0,0.8-0.1s0.4-0.2,0.6-0.3s0.3-0.3,0.5-0.4s0.2-0.3,0.3-0.5v-3.4c-0.1-0.2-0.2-0.4-0.3-0.6
		s-0.3-0.3-0.4-0.5s-0.4-0.2-0.6-0.3s-0.5-0.1-0.8-0.1c-0.4,0-0.7,0.1-1,0.2s-0.5,0.4-0.7,0.6s-0.3,0.6-0.4,1s-0.1,0.8-0.1,1.2
		V184.4z"/>
	<path class="st2" d="M181.4,188.9h-0.7l4.2-10.8h0.7L181.4,188.9z"/>
	<path class="st2" d="M188,188h-0.8v-10.5h0.8V188z"/>
	<path class="st2" d="M192.7,184.1c0,0.6,0,1.2-0.1,1.7s-0.2,1.1-0.4,1.5s-0.3,0.9-0.5,1.3s-0.4,0.8-0.6,1.1s-0.5,0.6-0.7,0.8
		s-0.5,0.4-0.7,0.6l-0.2-0.5c0.3-0.2,0.6-0.5,0.9-0.9s0.6-0.9,0.8-1.5s0.4-1.2,0.6-1.9s0.2-1.5,0.2-2.3V184c0-0.8-0.1-1.6-0.2-2.3
		s-0.3-1.3-0.6-1.9s-0.5-1.1-0.8-1.5s-0.6-0.7-0.9-0.9l0.2-0.5c0.2,0.1,0.5,0.3,0.7,0.6s0.5,0.5,0.7,0.9s0.4,0.7,0.6,1.1
		s0.4,0.9,0.5,1.3s0.3,1,0.4,1.5s0.1,1.1,0.1,1.7V184.1z"/>
</g>
<g>
</g>
<g>
</g>
<g>
</g>
<g>
</g>
<g>
</g>
<g>
</g>
</svg>
